<mxfile host="app.diagrams.net" modified="2024-04-16T17:41:47.157Z" agent="Mozilla/5.0 (Windows NT 10.0; Win64; x64) AppleWebKit/537.36 (KHTML, like Gecko) Chrome/122.0.0.0 Safari/537.36 OPR/108.0.0.0" etag="ck_We74Kfq11dzCuOnqe" version="24.2.5" type="device" pages="2">
  <diagram name="Page-1" id="e56a1550-8fbb-45ad-956c-1786394a9013">
    <mxGraphModel dx="4188" dy="1532" grid="1" gridSize="10" guides="1" tooltips="1" connect="1" arrows="1" fold="1" page="1" pageScale="1" pageWidth="1390" pageHeight="980" background="none" math="0" shadow="0">
      <root>
        <mxCell id="0" />
        <mxCell id="1" parent="0" />
        <mxCell id="oW_7o39hYeS51kGIP4dF-699" value="" style="whiteSpace=wrap;html=1;align=center;fillColor=none;" vertex="1" parent="1">
          <mxGeometry x="-60" y="180" width="2080" height="1230" as="geometry" />
        </mxCell>
        <mxCell id="oW_7o39hYeS51kGIP4dF-22" value="" style="group" vertex="1" connectable="0" parent="1">
          <mxGeometry x="-200" y="220" width="180" height="30" as="geometry" />
        </mxCell>
        <mxCell id="oW_7o39hYeS51kGIP4dF-5" value="" style="endArrow=classic;html=1;rounded=0;" edge="1" parent="oW_7o39hYeS51kGIP4dF-22">
          <mxGeometry width="50" height="50" relative="1" as="geometry">
            <mxPoint x="80" y="20" as="sourcePoint" />
            <mxPoint x="180" y="20" as="targetPoint" />
          </mxGeometry>
        </mxCell>
        <mxCell id="oW_7o39hYeS51kGIP4dF-6" value="CLK100MHZ" style="text;html=1;align=center;verticalAlign=middle;whiteSpace=wrap;rounded=0;" vertex="1" parent="oW_7o39hYeS51kGIP4dF-22">
          <mxGeometry width="80" height="30" as="geometry" />
        </mxCell>
        <mxCell id="oW_7o39hYeS51kGIP4dF-23" value="" style="group" vertex="1" connectable="0" parent="1">
          <mxGeometry x="-180" y="380" width="160" height="30" as="geometry" />
        </mxCell>
        <mxCell id="oW_7o39hYeS51kGIP4dF-7" value="" style="endArrow=classic;html=1;rounded=0;" edge="1" parent="oW_7o39hYeS51kGIP4dF-23">
          <mxGeometry width="50" height="50" relative="1" as="geometry">
            <mxPoint x="60" y="20" as="sourcePoint" />
            <mxPoint x="160" y="20" as="targetPoint" />
          </mxGeometry>
        </mxCell>
        <mxCell id="oW_7o39hYeS51kGIP4dF-11" value="BTNU" style="text;html=1;align=center;verticalAlign=middle;whiteSpace=wrap;rounded=0;" vertex="1" parent="oW_7o39hYeS51kGIP4dF-23">
          <mxGeometry x="20" width="40" height="30" as="geometry" />
        </mxCell>
        <mxCell id="oW_7o39hYeS51kGIP4dF-24" value="" style="group" vertex="1" connectable="0" parent="1">
          <mxGeometry x="-180" y="260" width="160" height="30" as="geometry" />
        </mxCell>
        <mxCell id="oW_7o39hYeS51kGIP4dF-8" value="" style="endArrow=classic;html=1;rounded=0;" edge="1" parent="oW_7o39hYeS51kGIP4dF-24">
          <mxGeometry width="50" height="50" relative="1" as="geometry">
            <mxPoint x="60" y="20" as="sourcePoint" />
            <mxPoint x="160" y="20" as="targetPoint" />
          </mxGeometry>
        </mxCell>
        <mxCell id="oW_7o39hYeS51kGIP4dF-12" value="BTND" style="text;html=1;align=center;verticalAlign=middle;whiteSpace=wrap;rounded=0;" vertex="1" parent="oW_7o39hYeS51kGIP4dF-24">
          <mxGeometry x="20" width="40" height="30" as="geometry" />
        </mxCell>
        <mxCell id="oW_7o39hYeS51kGIP4dF-26" value="" style="group" vertex="1" connectable="0" parent="1">
          <mxGeometry x="-180" y="300" width="160" height="30" as="geometry" />
        </mxCell>
        <mxCell id="oW_7o39hYeS51kGIP4dF-9" value="" style="endArrow=classic;html=1;rounded=0;" edge="1" parent="oW_7o39hYeS51kGIP4dF-26">
          <mxGeometry width="50" height="50" relative="1" as="geometry">
            <mxPoint x="60" y="20" as="sourcePoint" />
            <mxPoint x="160" y="20" as="targetPoint" />
          </mxGeometry>
        </mxCell>
        <mxCell id="oW_7o39hYeS51kGIP4dF-13" value="BTNL" style="text;html=1;align=center;verticalAlign=middle;whiteSpace=wrap;rounded=0;" vertex="1" parent="oW_7o39hYeS51kGIP4dF-26">
          <mxGeometry x="20" width="40" height="30" as="geometry" />
        </mxCell>
        <mxCell id="oW_7o39hYeS51kGIP4dF-27" value="" style="group" vertex="1" connectable="0" parent="1">
          <mxGeometry x="-180" y="340" width="160" height="30" as="geometry" />
        </mxCell>
        <mxCell id="oW_7o39hYeS51kGIP4dF-10" value="" style="endArrow=classic;html=1;rounded=0;" edge="1" parent="oW_7o39hYeS51kGIP4dF-27">
          <mxGeometry width="50" height="50" relative="1" as="geometry">
            <mxPoint x="60" y="20" as="sourcePoint" />
            <mxPoint x="160" y="20" as="targetPoint" />
          </mxGeometry>
        </mxCell>
        <mxCell id="oW_7o39hYeS51kGIP4dF-14" value="BTNR" style="text;html=1;align=center;verticalAlign=middle;whiteSpace=wrap;rounded=0;" vertex="1" parent="oW_7o39hYeS51kGIP4dF-27">
          <mxGeometry x="20" width="40" height="30" as="geometry" />
        </mxCell>
        <mxCell id="oW_7o39hYeS51kGIP4dF-4" value="top_level.vhd" style="text;html=1;align=center;verticalAlign=middle;whiteSpace=wrap;rounded=0;container=0;" vertex="1" collapsed="1" parent="1">
          <mxGeometry x="-60" y="180" width="120" height="40" as="geometry">
            <mxRectangle x="-10" y="170" width="80" height="30" as="alternateBounds" />
          </mxGeometry>
        </mxCell>
        <mxCell id="oW_7o39hYeS51kGIP4dF-42" value="" style="endArrow=none;html=1;rounded=0;" edge="1" parent="1">
          <mxGeometry width="50" height="50" relative="1" as="geometry">
            <mxPoint x="-20" y="240" as="sourcePoint" />
            <mxPoint x="160" y="240" as="targetPoint" />
          </mxGeometry>
        </mxCell>
        <mxCell id="oW_7o39hYeS51kGIP4dF-43" value="" style="endArrow=none;html=1;rounded=0;" edge="1" parent="1">
          <mxGeometry width="50" height="50" relative="1" as="geometry">
            <mxPoint x="160" y="310" as="sourcePoint" />
            <mxPoint x="160" y="240" as="targetPoint" />
          </mxGeometry>
        </mxCell>
        <mxCell id="oW_7o39hYeS51kGIP4dF-46" value="" style="endArrow=none;html=1;rounded=0;" edge="1" parent="1">
          <mxGeometry width="50" height="50" relative="1" as="geometry">
            <mxPoint x="-20" y="280" as="sourcePoint" />
            <mxPoint x="120" y="280" as="targetPoint" />
          </mxGeometry>
        </mxCell>
        <mxCell id="oW_7o39hYeS51kGIP4dF-47" value="" style="endArrow=none;html=1;rounded=0;" edge="1" parent="1">
          <mxGeometry width="50" height="50" relative="1" as="geometry">
            <mxPoint x="120" y="400" as="sourcePoint" />
            <mxPoint x="120" y="280" as="targetPoint" />
          </mxGeometry>
        </mxCell>
        <mxCell id="oW_7o39hYeS51kGIP4dF-48" value="" style="endArrow=classic;html=1;rounded=0;entryX=0;entryY=0.426;entryDx=0;entryDy=0;entryPerimeter=0;" edge="1" parent="1">
          <mxGeometry width="50" height="50" relative="1" as="geometry">
            <mxPoint x="120" y="400" as="sourcePoint" />
            <mxPoint x="200" y="399.28" as="targetPoint" />
          </mxGeometry>
        </mxCell>
        <mxCell id="oW_7o39hYeS51kGIP4dF-49" value="" style="endArrow=none;html=1;rounded=0;" edge="1" parent="1">
          <mxGeometry width="50" height="50" relative="1" as="geometry">
            <mxPoint x="-20" y="320" as="sourcePoint" />
            <mxPoint x="80" y="320" as="targetPoint" />
          </mxGeometry>
        </mxCell>
        <mxCell id="oW_7o39hYeS51kGIP4dF-53" value="" style="endArrow=none;html=1;rounded=0;" edge="1" parent="1">
          <mxGeometry width="50" height="50" relative="1" as="geometry">
            <mxPoint x="80" y="440" as="sourcePoint" />
            <mxPoint x="80" y="320" as="targetPoint" />
            <Array as="points">
              <mxPoint x="80" y="380" />
            </Array>
          </mxGeometry>
        </mxCell>
        <mxCell id="oW_7o39hYeS51kGIP4dF-54" value="" style="endArrow=classic;html=1;rounded=0;entryX=0.003;entryY=0.573;entryDx=0;entryDy=0;entryPerimeter=0;" edge="1" parent="1">
          <mxGeometry width="50" height="50" relative="1" as="geometry">
            <mxPoint x="80" y="440" as="sourcePoint" />
            <mxPoint x="201.07999999999993" y="440.4399999999998" as="targetPoint" />
          </mxGeometry>
        </mxCell>
        <mxCell id="oW_7o39hYeS51kGIP4dF-55" value="" style="endArrow=none;html=1;rounded=0;" edge="1" parent="1">
          <mxGeometry width="50" height="50" relative="1" as="geometry">
            <mxPoint x="-20" y="360" as="sourcePoint" />
            <mxPoint x="40" y="360" as="targetPoint" />
          </mxGeometry>
        </mxCell>
        <mxCell id="oW_7o39hYeS51kGIP4dF-56" value="" style="endArrow=none;html=1;rounded=0;" edge="1" parent="1">
          <mxGeometry width="50" height="50" relative="1" as="geometry">
            <mxPoint x="-20" y="400" as="sourcePoint" />
            <mxPoint y="400" as="targetPoint" />
          </mxGeometry>
        </mxCell>
        <mxCell id="oW_7o39hYeS51kGIP4dF-59" value="" style="endArrow=none;html=1;rounded=0;" edge="1" parent="1">
          <mxGeometry width="50" height="50" relative="1" as="geometry">
            <mxPoint x="40" y="480" as="sourcePoint" />
            <mxPoint x="40" y="360" as="targetPoint" />
          </mxGeometry>
        </mxCell>
        <mxCell id="oW_7o39hYeS51kGIP4dF-60" value="" style="endArrow=classic;html=1;rounded=0;entryX=0.001;entryY=0.716;entryDx=0;entryDy=0;entryPerimeter=0;" edge="1" parent="1">
          <mxGeometry width="50" height="50" relative="1" as="geometry">
            <mxPoint x="40" y="480" as="sourcePoint" />
            <mxPoint x="200.35999999999967" y="480.48" as="targetPoint" />
          </mxGeometry>
        </mxCell>
        <mxCell id="oW_7o39hYeS51kGIP4dF-61" value="" style="endArrow=none;html=1;rounded=0;" edge="1" parent="1">
          <mxGeometry width="50" height="50" relative="1" as="geometry">
            <mxPoint x="160" y="240" as="sourcePoint" />
            <mxPoint x="600" y="240" as="targetPoint" />
          </mxGeometry>
        </mxCell>
        <mxCell id="oW_7o39hYeS51kGIP4dF-62" value="" style="rounded=1;arcSize=10;whiteSpace=wrap;html=1;align=center;" vertex="1" parent="1">
          <mxGeometry x="200" y="270" width="240" height="290" as="geometry" />
        </mxCell>
        <mxCell id="oW_7o39hYeS51kGIP4dF-71" value="" style="group" vertex="1" connectable="0" parent="1">
          <mxGeometry y="400" width="200.35999999999967" height="120" as="geometry" />
        </mxCell>
        <mxCell id="oW_7o39hYeS51kGIP4dF-57" value="" style="endArrow=none;html=1;rounded=0;" edge="1" parent="oW_7o39hYeS51kGIP4dF-71">
          <mxGeometry width="50" height="50" relative="1" as="geometry">
            <mxPoint y="120" as="sourcePoint" />
            <mxPoint as="targetPoint" />
          </mxGeometry>
        </mxCell>
        <mxCell id="oW_7o39hYeS51kGIP4dF-58" value="" style="endArrow=classic;html=1;rounded=0;entryX=0.001;entryY=0.857;entryDx=0;entryDy=0;entryPerimeter=0;" edge="1" parent="oW_7o39hYeS51kGIP4dF-71">
          <mxGeometry width="50" height="50" relative="1" as="geometry">
            <mxPoint y="120" as="sourcePoint" />
            <mxPoint x="200.35999999999967" y="119.96000000000004" as="targetPoint" />
          </mxGeometry>
        </mxCell>
        <mxCell id="oW_7o39hYeS51kGIP4dF-72" value="move_to_one" style="text;html=1;align=center;verticalAlign=middle;whiteSpace=wrap;rounded=0;" vertex="1" parent="1">
          <mxGeometry x="200" y="500" width="90" height="40" as="geometry" />
        </mxCell>
        <mxCell id="oW_7o39hYeS51kGIP4dF-73" value="move_to_right" style="text;html=1;align=center;verticalAlign=middle;whiteSpace=wrap;rounded=0;" vertex="1" parent="1">
          <mxGeometry x="200.36" y="460" width="89.64" height="40" as="geometry" />
        </mxCell>
        <mxCell id="oW_7o39hYeS51kGIP4dF-74" value="enter_text" style="text;html=1;align=center;verticalAlign=middle;whiteSpace=wrap;rounded=0;" vertex="1" parent="1">
          <mxGeometry x="200.36" y="420" width="69.64" height="40" as="geometry" />
        </mxCell>
        <mxCell id="oW_7o39hYeS51kGIP4dF-75" value="move_to_zero" style="text;html=1;align=center;verticalAlign=middle;whiteSpace=wrap;rounded=0;" vertex="1" parent="1">
          <mxGeometry x="200" y="380" width="90" height="40" as="geometry" />
        </mxCell>
        <mxCell id="oW_7o39hYeS51kGIP4dF-76" value="clk" style="text;html=1;align=center;verticalAlign=middle;whiteSpace=wrap;rounded=0;" vertex="1" parent="1">
          <mxGeometry x="200.36" y="296.25" width="29.64" height="23.75" as="geometry" />
        </mxCell>
        <mxCell id="oW_7o39hYeS51kGIP4dF-81" value="7_segmet_display.vhd" style="text;html=1;align=center;verticalAlign=middle;whiteSpace=wrap;rounded=0;" vertex="1" parent="1">
          <mxGeometry x="200.36" y="270" width="139.64" height="30" as="geometry" />
        </mxCell>
        <mxCell id="oW_7o39hYeS51kGIP4dF-93" value="" style="group" vertex="1" connectable="0" parent="1">
          <mxGeometry x="240" y="720" width="320" height="410" as="geometry" />
        </mxCell>
        <mxCell id="oW_7o39hYeS51kGIP4dF-79" value="" style="rounded=1;arcSize=10;whiteSpace=wrap;html=1;align=center;" vertex="1" parent="oW_7o39hYeS51kGIP4dF-93">
          <mxGeometry width="320" height="410" as="geometry" />
        </mxCell>
        <mxCell id="oW_7o39hYeS51kGIP4dF-80" value="main.vhd" style="text;html=1;align=center;verticalAlign=middle;whiteSpace=wrap;rounded=0;" vertex="1" parent="oW_7o39hYeS51kGIP4dF-93">
          <mxGeometry x="0.4800000000000182" width="66.66666666666666" height="43.92857142857143" as="geometry" />
        </mxCell>
        <mxCell id="oW_7o39hYeS51kGIP4dF-141" value="clk" style="text;html=1;align=center;verticalAlign=middle;whiteSpace=wrap;rounded=0;" vertex="1" parent="oW_7o39hYeS51kGIP4dF-93">
          <mxGeometry y="60" width="26.666666666666664" height="30" as="geometry" />
        </mxCell>
        <mxCell id="oW_7o39hYeS51kGIP4dF-142" value="input_from_display" style="text;html=1;align=center;verticalAlign=middle;whiteSpace=wrap;rounded=0;" vertex="1" parent="oW_7o39hYeS51kGIP4dF-93">
          <mxGeometry x="0.48" y="100" width="109.52" height="30" as="geometry" />
        </mxCell>
        <mxCell id="oW_7o39hYeS51kGIP4dF-149" value="Code_decode_seed" style="text;html=1;align=center;verticalAlign=middle;whiteSpace=wrap;rounded=0;" vertex="1" parent="oW_7o39hYeS51kGIP4dF-93">
          <mxGeometry x="0.48" y="140" width="119.52" height="30" as="geometry" />
        </mxCell>
        <mxCell id="oW_7o39hYeS51kGIP4dF-150" value="Reset" style="text;html=1;align=center;verticalAlign=middle;whiteSpace=wrap;rounded=0;" vertex="1" parent="oW_7o39hYeS51kGIP4dF-93">
          <mxGeometry x="0.48" y="180" width="39.52" height="30" as="geometry" />
        </mxCell>
        <mxCell id="oW_7o39hYeS51kGIP4dF-164" value="Code_vernam_cipher(7:0)" style="text;html=1;align=center;verticalAlign=middle;whiteSpace=wrap;rounded=0;" vertex="1" parent="oW_7o39hYeS51kGIP4dF-93">
          <mxGeometry x="180" y="60" width="140" height="30" as="geometry" />
        </mxCell>
        <mxCell id="oW_7o39hYeS51kGIP4dF-165" value="Decode_vernam_cipher(7:0)" style="text;html=1;align=center;verticalAlign=middle;whiteSpace=wrap;rounded=0;" vertex="1" parent="oW_7o39hYeS51kGIP4dF-93">
          <mxGeometry x="160" y="100" width="160" height="30" as="geometry" />
        </mxCell>
        <mxCell id="oW_7o39hYeS51kGIP4dF-166" value="Code_ceaser(7:0)" style="text;html=1;align=center;verticalAlign=middle;whiteSpace=wrap;rounded=0;" vertex="1" parent="oW_7o39hYeS51kGIP4dF-93">
          <mxGeometry x="220" y="180" width="100" height="30" as="geometry" />
        </mxCell>
        <mxCell id="oW_7o39hYeS51kGIP4dF-167" value="Deode_ceaser(7:0)" style="text;html=1;align=center;verticalAlign=middle;whiteSpace=wrap;rounded=0;" vertex="1" parent="oW_7o39hYeS51kGIP4dF-93">
          <mxGeometry x="210" y="220" width="110" height="30" as="geometry" />
        </mxCell>
        <mxCell id="oW_7o39hYeS51kGIP4dF-168" value="random_seed(7:0)" style="text;html=1;align=center;verticalAlign=middle;whiteSpace=wrap;rounded=0;" vertex="1" parent="oW_7o39hYeS51kGIP4dF-93">
          <mxGeometry x="220" y="140" width="100" height="30" as="geometry" />
        </mxCell>
        <mxCell id="oW_7o39hYeS51kGIP4dF-94" value="" style="endArrow=none;html=1;rounded=0;" edge="1" parent="1">
          <mxGeometry width="50" height="50" relative="1" as="geometry">
            <mxPoint x="600" y="680" as="sourcePoint" />
            <mxPoint x="600" y="240" as="targetPoint" />
          </mxGeometry>
        </mxCell>
        <mxCell id="oW_7o39hYeS51kGIP4dF-100" value="output_display(7:0)" style="text;html=1;align=center;verticalAlign=middle;whiteSpace=wrap;rounded=0;" vertex="1" parent="1">
          <mxGeometry x="330" y="465" width="110" height="30" as="geometry" />
        </mxCell>
        <mxCell id="oW_7o39hYeS51kGIP4dF-127" value="" style="endArrow=classic;html=1;rounded=0;entryX=0.016;entryY=0.6;entryDx=0;entryDy=0;entryPerimeter=0;" edge="1" parent="1" target="oW_7o39hYeS51kGIP4dF-76">
          <mxGeometry width="50" height="50" relative="1" as="geometry">
            <mxPoint x="160" y="310" as="sourcePoint" />
            <mxPoint x="200.36" y="320" as="targetPoint" />
          </mxGeometry>
        </mxCell>
        <mxCell id="oW_7o39hYeS51kGIP4dF-128" value="" style="endArrow=none;html=1;rounded=0;" edge="1" parent="1">
          <mxGeometry width="50" height="50" relative="1" as="geometry">
            <mxPoint x="560" y="640" as="sourcePoint" />
            <mxPoint x="560" y="480" as="targetPoint" />
          </mxGeometry>
        </mxCell>
        <mxCell id="oW_7o39hYeS51kGIP4dF-133" value="" style="endArrow=none;html=1;rounded=0;" edge="1" parent="1">
          <mxGeometry width="50" height="50" relative="1" as="geometry">
            <mxPoint x="200" y="680" as="sourcePoint" />
            <mxPoint x="600" y="680" as="targetPoint" />
          </mxGeometry>
        </mxCell>
        <mxCell id="oW_7o39hYeS51kGIP4dF-134" value="" style="endArrow=classic;html=1;rounded=0;" edge="1" parent="1">
          <mxGeometry width="50" height="50" relative="1" as="geometry">
            <mxPoint x="200.36" y="800" as="sourcePoint" />
            <mxPoint x="240.54000000000002" y="800" as="targetPoint" />
          </mxGeometry>
        </mxCell>
        <mxCell id="oW_7o39hYeS51kGIP4dF-135" value="" style="endArrow=none;html=1;rounded=0;" edge="1" parent="1">
          <mxGeometry width="50" height="50" relative="1" as="geometry">
            <mxPoint x="200" y="800" as="sourcePoint" />
            <mxPoint x="200" y="680" as="targetPoint" />
          </mxGeometry>
        </mxCell>
        <mxCell id="oW_7o39hYeS51kGIP4dF-136" value="" style="endArrow=none;html=1;rounded=0;" edge="1" parent="1">
          <mxGeometry width="50" height="50" relative="1" as="geometry">
            <mxPoint x="160" y="640" as="sourcePoint" />
            <mxPoint x="560" y="640" as="targetPoint" />
          </mxGeometry>
        </mxCell>
        <mxCell id="oW_7o39hYeS51kGIP4dF-137" value="" style="endArrow=none;html=1;rounded=0;" edge="1" parent="1">
          <mxGeometry width="50" height="50" relative="1" as="geometry">
            <mxPoint x="160" y="840" as="sourcePoint" />
            <mxPoint x="160" y="640" as="targetPoint" />
          </mxGeometry>
        </mxCell>
        <mxCell id="oW_7o39hYeS51kGIP4dF-138" value="" style="endArrow=classic;html=1;rounded=0;entryX=0;entryY=0.32;entryDx=0;entryDy=0;entryPerimeter=0;" edge="1" parent="1">
          <mxGeometry width="50" height="50" relative="1" as="geometry">
            <mxPoint x="160" y="840" as="sourcePoint" />
            <mxPoint x="240" y="840" as="targetPoint" />
          </mxGeometry>
        </mxCell>
        <mxCell id="oW_7o39hYeS51kGIP4dF-146" value="" style="endArrow=classic;html=1;rounded=0;entryX=-0.001;entryY=0.681;entryDx=0;entryDy=0;entryPerimeter=0;" edge="1" parent="1">
          <mxGeometry width="50" height="50" relative="1" as="geometry">
            <mxPoint x="-20" y="920" as="sourcePoint" />
            <mxPoint x="239.99999999999977" y="920" as="targetPoint" />
          </mxGeometry>
        </mxCell>
        <mxCell id="oW_7o39hYeS51kGIP4dF-151" value="CA" style="text;html=1;align=center;verticalAlign=middle;whiteSpace=wrap;rounded=0;" vertex="1" parent="1">
          <mxGeometry x="2080" y="330" width="20" height="21.25" as="geometry" />
        </mxCell>
        <mxCell id="oW_7o39hYeS51kGIP4dF-152" value="CB" style="text;html=1;align=center;verticalAlign=middle;whiteSpace=wrap;rounded=0;" vertex="1" parent="1">
          <mxGeometry x="2080" y="350" width="20" height="20" as="geometry" />
        </mxCell>
        <mxCell id="oW_7o39hYeS51kGIP4dF-153" value="CC" style="text;html=1;align=center;verticalAlign=middle;whiteSpace=wrap;rounded=0;" vertex="1" parent="1">
          <mxGeometry x="2080" y="370" width="20" height="20" as="geometry" />
        </mxCell>
        <mxCell id="oW_7o39hYeS51kGIP4dF-154" value="CD" style="text;html=1;align=center;verticalAlign=middle;whiteSpace=wrap;rounded=0;" vertex="1" parent="1">
          <mxGeometry x="2080" y="388.75" width="20" height="20" as="geometry" />
        </mxCell>
        <mxCell id="oW_7o39hYeS51kGIP4dF-155" value="CE" style="text;html=1;align=center;verticalAlign=middle;whiteSpace=wrap;rounded=0;" vertex="1" parent="1">
          <mxGeometry x="2080" y="408.75" width="20" height="20" as="geometry" />
        </mxCell>
        <mxCell id="oW_7o39hYeS51kGIP4dF-156" value="CF" style="text;html=1;align=center;verticalAlign=middle;whiteSpace=wrap;rounded=0;" vertex="1" parent="1">
          <mxGeometry x="2080" y="431.25" width="20" height="17.5" as="geometry" />
        </mxCell>
        <mxCell id="oW_7o39hYeS51kGIP4dF-157" value="CG" style="text;html=1;align=center;verticalAlign=middle;whiteSpace=wrap;rounded=0;" vertex="1" parent="1">
          <mxGeometry x="2080" y="448.75" width="20" height="20" as="geometry" />
        </mxCell>
        <mxCell id="oW_7o39hYeS51kGIP4dF-159" value="seg(6)" style="text;html=1;align=center;verticalAlign=middle;whiteSpace=wrap;rounded=0;" vertex="1" parent="1">
          <mxGeometry x="1910" y="455.63" width="60" height="20" as="geometry" />
        </mxCell>
        <mxCell id="oW_7o39hYeS51kGIP4dF-158" value="seg(0)" style="text;html=1;align=center;verticalAlign=middle;whiteSpace=wrap;rounded=0;" vertex="1" parent="1">
          <mxGeometry x="1910" y="320" width="60" height="20" as="geometry" />
        </mxCell>
        <mxCell id="oW_7o39hYeS51kGIP4dF-161" value="" style="endArrow=classic;html=1;rounded=0;" edge="1" parent="1">
          <mxGeometry width="50" height="50" relative="1" as="geometry">
            <mxPoint x="760" y="570" as="sourcePoint" />
            <mxPoint x="1100" y="570" as="targetPoint" />
            <Array as="points">
              <mxPoint x="1000" y="570" />
            </Array>
          </mxGeometry>
        </mxCell>
        <mxCell id="oW_7o39hYeS51kGIP4dF-28" value="" style="group" vertex="1" connectable="0" parent="1">
          <mxGeometry x="-160" y="900" width="160" height="30" as="geometry" />
        </mxCell>
        <mxCell id="oW_7o39hYeS51kGIP4dF-15" value="" style="endArrow=classic;html=1;rounded=0;" edge="1" parent="oW_7o39hYeS51kGIP4dF-28">
          <mxGeometry width="50" height="50" relative="1" as="geometry">
            <mxPoint x="40" y="20" as="sourcePoint" />
            <mxPoint x="140" y="20" as="targetPoint" />
          </mxGeometry>
        </mxCell>
        <mxCell id="oW_7o39hYeS51kGIP4dF-16" value="BTNC" style="text;html=1;align=center;verticalAlign=middle;whiteSpace=wrap;rounded=0;" vertex="1" parent="oW_7o39hYeS51kGIP4dF-28">
          <mxGeometry width="40" height="30" as="geometry" />
        </mxCell>
        <mxCell id="oW_7o39hYeS51kGIP4dF-145" value="" style="endArrow=classic;html=1;rounded=0;entryX=-0.004;entryY=0.388;entryDx=0;entryDy=0;entryPerimeter=0;" edge="1" parent="1" target="oW_7o39hYeS51kGIP4dF-79">
          <mxGeometry width="50" height="50" relative="1" as="geometry">
            <mxPoint x="-20" y="880" as="sourcePoint" />
            <mxPoint x="220" y="960" as="targetPoint" />
          </mxGeometry>
        </mxCell>
        <mxCell id="oW_7o39hYeS51kGIP4dF-83" value="" style="endArrow=classic;html=1;rounded=0;" edge="1" parent="1">
          <mxGeometry width="50" height="50" relative="1" as="geometry">
            <mxPoint x="-120" y="880" as="sourcePoint" />
            <mxPoint x="-20" y="880" as="targetPoint" />
          </mxGeometry>
        </mxCell>
        <mxCell id="oW_7o39hYeS51kGIP4dF-90" value="SWC(4:0)" style="text;html=1;align=center;verticalAlign=middle;whiteSpace=wrap;rounded=0;" vertex="1" parent="1">
          <mxGeometry x="-180" y="860" width="60" height="30" as="geometry" />
        </mxCell>
        <mxCell id="oW_7o39hYeS51kGIP4dF-169" value="" style="endArrow=classic;html=1;rounded=0;" edge="1" parent="1">
          <mxGeometry width="50" height="50" relative="1" as="geometry">
            <mxPoint x="800" y="610" as="sourcePoint" />
            <mxPoint x="1100" y="610" as="targetPoint" />
            <Array as="points">
              <mxPoint x="1000" y="610" />
            </Array>
          </mxGeometry>
        </mxCell>
        <mxCell id="oW_7o39hYeS51kGIP4dF-170" value="" style="endArrow=classic;html=1;rounded=0;" edge="1" parent="1">
          <mxGeometry width="50" height="50" relative="1" as="geometry">
            <mxPoint x="840" y="650" as="sourcePoint" />
            <mxPoint x="1100" y="650" as="targetPoint" />
            <Array as="points">
              <mxPoint x="1000" y="650" />
            </Array>
          </mxGeometry>
        </mxCell>
        <mxCell id="oW_7o39hYeS51kGIP4dF-201" value="" style="group" vertex="1" connectable="0" parent="1">
          <mxGeometry x="1100" y="760" width="370" height="270" as="geometry" />
        </mxCell>
        <mxCell id="oW_7o39hYeS51kGIP4dF-195" value="" style="group" vertex="1" connectable="0" parent="oW_7o39hYeS51kGIP4dF-201">
          <mxGeometry y="40" width="370" height="230" as="geometry" />
        </mxCell>
        <mxCell id="oW_7o39hYeS51kGIP4dF-196" value="" style="rounded=1;arcSize=10;whiteSpace=wrap;html=1;align=center;" vertex="1" parent="oW_7o39hYeS51kGIP4dF-195">
          <mxGeometry y="-18.95" width="370" height="238.95" as="geometry" />
        </mxCell>
        <mxCell id="oW_7o39hYeS51kGIP4dF-197" value="clk" style="text;html=1;align=center;verticalAlign=middle;whiteSpace=wrap;rounded=0;" vertex="1" parent="oW_7o39hYeS51kGIP4dF-195">
          <mxGeometry y="11.04736842105263" width="30" height="28.421052631578945" as="geometry" />
        </mxCell>
        <mxCell id="oW_7o39hYeS51kGIP4dF-198" value="code_input" style="text;html=1;align=center;verticalAlign=middle;whiteSpace=wrap;rounded=0;" vertex="1" parent="oW_7o39hYeS51kGIP4dF-195">
          <mxGeometry y="86.31" width="70" height="28.42" as="geometry" />
        </mxCell>
        <mxCell id="oW_7o39hYeS51kGIP4dF-199" value="decode_input" style="text;html=1;align=center;verticalAlign=middle;whiteSpace=wrap;rounded=0;" vertex="1" parent="oW_7o39hYeS51kGIP4dF-195">
          <mxGeometry y="130" width="80" height="28.42" as="geometry" />
        </mxCell>
        <mxCell id="oW_7o39hYeS51kGIP4dF-200" value="SW(1:0)" style="text;html=1;align=center;verticalAlign=middle;whiteSpace=wrap;rounded=0;" vertex="1" parent="oW_7o39hYeS51kGIP4dF-195">
          <mxGeometry y="170.00157894736842" width="60" height="28.421052631578945" as="geometry" />
        </mxCell>
        <mxCell id="oW_7o39hYeS51kGIP4dF-177" value="Ceaser_cipher.vhd" style="text;html=1;align=center;verticalAlign=middle;whiteSpace=wrap;rounded=0;" vertex="1" parent="oW_7o39hYeS51kGIP4dF-195">
          <mxGeometry x="10" y="-18.95" width="100" height="30" as="geometry" />
        </mxCell>
        <mxCell id="oW_7o39hYeS51kGIP4dF-240" value="random_seed" style="text;html=1;align=center;verticalAlign=middle;whiteSpace=wrap;rounded=0;" vertex="1" parent="oW_7o39hYeS51kGIP4dF-195">
          <mxGeometry y="50" width="80" height="28.42" as="geometry" />
        </mxCell>
        <mxCell id="oW_7o39hYeS51kGIP4dF-241" value="" style="group" vertex="1" connectable="0" parent="1">
          <mxGeometry x="1100" y="460" width="370" height="270" as="geometry" />
        </mxCell>
        <mxCell id="oW_7o39hYeS51kGIP4dF-242" value="" style="group" vertex="1" connectable="0" parent="oW_7o39hYeS51kGIP4dF-241">
          <mxGeometry y="40" width="370" height="230" as="geometry" />
        </mxCell>
        <mxCell id="oW_7o39hYeS51kGIP4dF-243" value="" style="rounded=1;arcSize=10;whiteSpace=wrap;html=1;align=center;" vertex="1" parent="oW_7o39hYeS51kGIP4dF-242">
          <mxGeometry y="-18.95" width="370" height="238.95" as="geometry" />
        </mxCell>
        <mxCell id="oW_7o39hYeS51kGIP4dF-244" value="clk" style="text;html=1;align=center;verticalAlign=middle;whiteSpace=wrap;rounded=0;" vertex="1" parent="oW_7o39hYeS51kGIP4dF-242">
          <mxGeometry y="18.94736842105263" width="30" height="28.421052631578945" as="geometry" />
        </mxCell>
        <mxCell id="oW_7o39hYeS51kGIP4dF-245" value="code_input" style="text;html=1;align=center;verticalAlign=middle;whiteSpace=wrap;rounded=0;" vertex="1" parent="oW_7o39hYeS51kGIP4dF-242">
          <mxGeometry y="66.32000000000001" width="70" height="28.42" as="geometry" />
        </mxCell>
        <mxCell id="oW_7o39hYeS51kGIP4dF-246" value="decode_input" style="text;html=1;align=center;verticalAlign=middle;whiteSpace=wrap;rounded=0;" vertex="1" parent="oW_7o39hYeS51kGIP4dF-242">
          <mxGeometry y="94.74" width="80" height="28.42" as="geometry" />
        </mxCell>
        <mxCell id="oW_7o39hYeS51kGIP4dF-247" value="SW(1:0)" style="text;html=1;align=center;verticalAlign=middle;whiteSpace=wrap;rounded=0;" vertex="1" parent="oW_7o39hYeS51kGIP4dF-242">
          <mxGeometry y="170.00157894736842" width="60" height="28.421052631578945" as="geometry" />
        </mxCell>
        <mxCell id="oW_7o39hYeS51kGIP4dF-248" value="Vernam_cipher.vhd" style="text;html=1;align=center;verticalAlign=middle;whiteSpace=wrap;rounded=0;" vertex="1" parent="oW_7o39hYeS51kGIP4dF-242">
          <mxGeometry x="10" y="-18.95" width="110" height="30" as="geometry" />
        </mxCell>
        <mxCell id="oW_7o39hYeS51kGIP4dF-249" value="random_seed" style="text;html=1;align=center;verticalAlign=middle;whiteSpace=wrap;rounded=0;" vertex="1" parent="oW_7o39hYeS51kGIP4dF-242">
          <mxGeometry y="132.63" width="80" height="28.42" as="geometry" />
        </mxCell>
        <mxCell id="oW_7o39hYeS51kGIP4dF-250" value="" style="group" vertex="1" connectable="0" parent="1">
          <mxGeometry x="1100" y="1080" width="370" height="270" as="geometry" />
        </mxCell>
        <mxCell id="oW_7o39hYeS51kGIP4dF-251" value="" style="group" vertex="1" connectable="0" parent="oW_7o39hYeS51kGIP4dF-250">
          <mxGeometry y="40" width="370" height="230" as="geometry" />
        </mxCell>
        <mxCell id="oW_7o39hYeS51kGIP4dF-252" value="" style="rounded=1;arcSize=10;whiteSpace=wrap;html=1;align=center;" vertex="1" parent="oW_7o39hYeS51kGIP4dF-251">
          <mxGeometry y="-18.95" width="370" height="238.95" as="geometry" />
        </mxCell>
        <mxCell id="oW_7o39hYeS51kGIP4dF-253" value="clk" style="text;html=1;align=center;verticalAlign=middle;whiteSpace=wrap;rounded=0;" vertex="1" parent="oW_7o39hYeS51kGIP4dF-251">
          <mxGeometry y="18.94736842105263" width="30" height="28.421052631578945" as="geometry" />
        </mxCell>
        <mxCell id="oW_7o39hYeS51kGIP4dF-254" value="input" style="text;html=1;align=center;verticalAlign=middle;whiteSpace=wrap;rounded=0;" vertex="1" parent="oW_7o39hYeS51kGIP4dF-251">
          <mxGeometry y="56.84210526315789" width="40" height="28.421052631578945" as="geometry" />
        </mxCell>
        <mxCell id="oW_7o39hYeS51kGIP4dF-255" value="code_input" style="text;html=1;align=center;verticalAlign=middle;whiteSpace=wrap;rounded=0;" vertex="1" parent="oW_7o39hYeS51kGIP4dF-251">
          <mxGeometry y="94.73684210526315" width="70" height="28.421052631578945" as="geometry" />
        </mxCell>
        <mxCell id="oW_7o39hYeS51kGIP4dF-256" value="SW(1:0)" style="text;html=1;align=center;verticalAlign=middle;whiteSpace=wrap;rounded=0;" vertex="1" parent="oW_7o39hYeS51kGIP4dF-251">
          <mxGeometry y="132.6315789473684" width="60" height="28.421052631578945" as="geometry" />
        </mxCell>
        <mxCell id="oW_7o39hYeS51kGIP4dF-257" value="?" style="text;html=1;align=center;verticalAlign=middle;whiteSpace=wrap;rounded=0;" vertex="1" parent="oW_7o39hYeS51kGIP4dF-251">
          <mxGeometry x="10" y="-18.950000000000045" width="90" height="30" as="geometry" />
        </mxCell>
        <mxCell id="oW_7o39hYeS51kGIP4dF-258" value="random_seed" style="text;html=1;align=center;verticalAlign=middle;whiteSpace=wrap;rounded=0;" vertex="1" parent="oW_7o39hYeS51kGIP4dF-251">
          <mxGeometry y="170" width="80" height="28.42" as="geometry" />
        </mxCell>
        <mxCell id="oW_7o39hYeS51kGIP4dF-259" value="" style="endArrow=none;html=1;rounded=0;" edge="1" parent="1">
          <mxGeometry width="50" height="50" relative="1" as="geometry">
            <mxPoint x="760" y="800" as="sourcePoint" />
            <mxPoint x="760" y="570" as="targetPoint" />
          </mxGeometry>
        </mxCell>
        <mxCell id="oW_7o39hYeS51kGIP4dF-261" value="" style="endArrow=none;html=1;rounded=0;" edge="1" parent="1">
          <mxGeometry width="50" height="50" relative="1" as="geometry">
            <mxPoint x="560" y="800" as="sourcePoint" />
            <mxPoint x="760" y="800" as="targetPoint" />
          </mxGeometry>
        </mxCell>
        <mxCell id="oW_7o39hYeS51kGIP4dF-262" value="" style="endArrow=none;html=1;rounded=0;" edge="1" parent="1">
          <mxGeometry width="50" height="50" relative="1" as="geometry">
            <mxPoint x="800" y="840" as="sourcePoint" />
            <mxPoint x="800" y="610" as="targetPoint" />
          </mxGeometry>
        </mxCell>
        <mxCell id="oW_7o39hYeS51kGIP4dF-263" value="" style="endArrow=none;html=1;rounded=0;exitX=1.002;exitY=0.677;exitDx=0;exitDy=0;exitPerimeter=0;" edge="1" parent="1" source="oW_7o39hYeS51kGIP4dF-165">
          <mxGeometry width="50" height="50" relative="1" as="geometry">
            <mxPoint x="750" y="890" as="sourcePoint" />
            <mxPoint x="800" y="840" as="targetPoint" />
          </mxGeometry>
        </mxCell>
        <mxCell id="oW_7o39hYeS51kGIP4dF-264" value="" style="endArrow=none;html=1;rounded=0;" edge="1" parent="1">
          <mxGeometry width="50" height="50" relative="1" as="geometry">
            <mxPoint x="840" y="880" as="sourcePoint" />
            <mxPoint x="840" y="650" as="targetPoint" />
          </mxGeometry>
        </mxCell>
        <mxCell id="oW_7o39hYeS51kGIP4dF-265" value="" style="endArrow=none;html=1;rounded=0;exitX=1.005;exitY=0.667;exitDx=0;exitDy=0;exitPerimeter=0;" edge="1" parent="1" source="oW_7o39hYeS51kGIP4dF-168">
          <mxGeometry width="50" height="50" relative="1" as="geometry">
            <mxPoint x="630" y="890" as="sourcePoint" />
            <mxPoint x="840" y="880" as="targetPoint" />
          </mxGeometry>
        </mxCell>
        <mxCell id="oW_7o39hYeS51kGIP4dF-270" value="" style="endArrow=none;html=1;rounded=0;" edge="1" parent="1">
          <mxGeometry width="50" height="50" relative="1" as="geometry">
            <mxPoint x="840" y="880" as="sourcePoint" />
            <mxPoint x="910" y="880" as="targetPoint" />
          </mxGeometry>
        </mxCell>
        <mxCell id="oW_7o39hYeS51kGIP4dF-271" value="" style="endArrow=none;html=1;rounded=0;" edge="1" parent="1">
          <mxGeometry width="50" height="50" relative="1" as="geometry">
            <mxPoint x="910" y="880" as="sourcePoint" />
            <mxPoint x="910" y="870" as="targetPoint" />
          </mxGeometry>
        </mxCell>
        <mxCell id="oW_7o39hYeS51kGIP4dF-272" value="" style="endArrow=classic;html=1;rounded=0;entryX=-0.008;entryY=0.685;entryDx=0;entryDy=0;entryPerimeter=0;" edge="1" parent="1" target="oW_7o39hYeS51kGIP4dF-240">
          <mxGeometry width="50" height="50" relative="1" as="geometry">
            <mxPoint x="910" y="870" as="sourcePoint" />
            <mxPoint x="960" y="820" as="targetPoint" />
          </mxGeometry>
        </mxCell>
        <mxCell id="oW_7o39hYeS51kGIP4dF-274" value="" style="endArrow=classic;html=1;rounded=0;" edge="1" parent="1">
          <mxGeometry width="50" height="50" relative="1" as="geometry">
            <mxPoint x="910" y="900" as="sourcePoint" />
            <mxPoint x="1100" y="900" as="targetPoint" />
          </mxGeometry>
        </mxCell>
        <mxCell id="oW_7o39hYeS51kGIP4dF-275" value="" style="endArrow=classic;html=1;rounded=0;" edge="1" parent="1">
          <mxGeometry width="50" height="50" relative="1" as="geometry">
            <mxPoint x="910" y="940" as="sourcePoint" />
            <mxPoint x="1100" y="940" as="targetPoint" />
          </mxGeometry>
        </mxCell>
        <mxCell id="oW_7o39hYeS51kGIP4dF-276" value="" style="endArrow=none;html=1;rounded=0;" edge="1" parent="1">
          <mxGeometry width="50" height="50" relative="1" as="geometry">
            <mxPoint x="910" y="920" as="sourcePoint" />
            <mxPoint x="910" y="900" as="targetPoint" />
          </mxGeometry>
        </mxCell>
        <mxCell id="oW_7o39hYeS51kGIP4dF-277" value="" style="endArrow=none;html=1;rounded=0;" edge="1" parent="1">
          <mxGeometry width="50" height="50" relative="1" as="geometry">
            <mxPoint x="560" y="920" as="sourcePoint" />
            <mxPoint x="910" y="920" as="targetPoint" />
          </mxGeometry>
        </mxCell>
        <mxCell id="oW_7o39hYeS51kGIP4dF-278" value="" style="endArrow=none;html=1;rounded=0;" edge="1" parent="1">
          <mxGeometry width="50" height="50" relative="1" as="geometry">
            <mxPoint x="910" y="900" as="sourcePoint" />
            <mxPoint x="910" y="900" as="targetPoint" />
          </mxGeometry>
        </mxCell>
        <mxCell id="oW_7o39hYeS51kGIP4dF-279" value="" style="endArrow=none;html=1;rounded=0;" edge="1" parent="1">
          <mxGeometry width="50" height="50" relative="1" as="geometry">
            <mxPoint x="560" y="960" as="sourcePoint" />
            <mxPoint x="910" y="960" as="targetPoint" />
          </mxGeometry>
        </mxCell>
        <mxCell id="oW_7o39hYeS51kGIP4dF-280" value="" style="endArrow=none;html=1;rounded=0;" edge="1" parent="1">
          <mxGeometry width="50" height="50" relative="1" as="geometry">
            <mxPoint x="910" y="960" as="sourcePoint" />
            <mxPoint x="910" y="940" as="targetPoint" />
          </mxGeometry>
        </mxCell>
        <mxCell id="oW_7o39hYeS51kGIP4dF-287" value="" style="endArrow=none;html=1;rounded=0;" edge="1" parent="1">
          <mxGeometry width="50" height="50" relative="1" as="geometry">
            <mxPoint x="600" y="240" as="sourcePoint" />
            <mxPoint x="1040" y="240" as="targetPoint" />
          </mxGeometry>
        </mxCell>
        <mxCell id="oW_7o39hYeS51kGIP4dF-288" value="" style="endArrow=none;html=1;rounded=0;" edge="1" parent="1">
          <mxGeometry relative="1" as="geometry">
            <mxPoint x="1040" y="530" as="sourcePoint" />
            <mxPoint x="1040" y="240" as="targetPoint" />
          </mxGeometry>
        </mxCell>
        <mxCell id="oW_7o39hYeS51kGIP4dF-293" value="" style="endArrow=classic;html=1;rounded=0;entryX=-0.031;entryY=0.421;entryDx=0;entryDy=0;entryPerimeter=0;" edge="1" parent="1" target="oW_7o39hYeS51kGIP4dF-244">
          <mxGeometry width="50" height="50" relative="1" as="geometry">
            <mxPoint x="1040" y="530" as="sourcePoint" />
            <mxPoint x="1070" y="530" as="targetPoint" />
          </mxGeometry>
        </mxCell>
        <mxCell id="oW_7o39hYeS51kGIP4dF-294" value="" style="endArrow=none;html=1;rounded=0;" edge="1" parent="1">
          <mxGeometry width="50" height="50" relative="1" as="geometry">
            <mxPoint x="1040" y="440" as="sourcePoint" />
            <mxPoint x="1600" y="440" as="targetPoint" />
          </mxGeometry>
        </mxCell>
        <mxCell id="oW_7o39hYeS51kGIP4dF-296" value="" style="endArrow=none;html=1;rounded=0;" edge="1" parent="1">
          <mxGeometry width="50" height="50" relative="1" as="geometry">
            <mxPoint x="1600" y="760" as="sourcePoint" />
            <mxPoint x="1600" y="440" as="targetPoint" />
          </mxGeometry>
        </mxCell>
        <mxCell id="oW_7o39hYeS51kGIP4dF-297" value="" style="endArrow=none;html=1;rounded=0;" edge="1" parent="1">
          <mxGeometry width="50" height="50" relative="1" as="geometry">
            <mxPoint x="1040" y="760" as="sourcePoint" />
            <mxPoint x="1600" y="760" as="targetPoint" />
          </mxGeometry>
        </mxCell>
        <mxCell id="oW_7o39hYeS51kGIP4dF-298" value="" style="endArrow=none;html=1;rounded=0;" edge="1" parent="1">
          <mxGeometry width="50" height="50" relative="1" as="geometry">
            <mxPoint x="1040" y="820" as="sourcePoint" />
            <mxPoint x="1040" y="760" as="targetPoint" />
          </mxGeometry>
        </mxCell>
        <mxCell id="oW_7o39hYeS51kGIP4dF-299" value="" style="endArrow=classic;html=1;rounded=0;entryX=0.019;entryY=0.339;entryDx=0;entryDy=0;entryPerimeter=0;" edge="1" parent="1" target="oW_7o39hYeS51kGIP4dF-197">
          <mxGeometry width="50" height="50" relative="1" as="geometry">
            <mxPoint x="1040" y="820" as="sourcePoint" />
            <mxPoint x="1090" y="770" as="targetPoint" />
          </mxGeometry>
        </mxCell>
        <mxCell id="oW_7o39hYeS51kGIP4dF-300" value="" style="endArrow=none;html=1;rounded=0;" edge="1" parent="1">
          <mxGeometry width="50" height="50" relative="1" as="geometry">
            <mxPoint x="1600" y="1080" as="sourcePoint" />
            <mxPoint x="1600" y="760" as="targetPoint" />
          </mxGeometry>
        </mxCell>
        <mxCell id="oW_7o39hYeS51kGIP4dF-301" value="" style="endArrow=none;html=1;rounded=0;" edge="1" parent="1">
          <mxGeometry width="50" height="50" relative="1" as="geometry">
            <mxPoint x="1040" y="1080" as="sourcePoint" />
            <mxPoint x="1600" y="1080" as="targetPoint" />
          </mxGeometry>
        </mxCell>
        <mxCell id="oW_7o39hYeS51kGIP4dF-302" value="" style="endArrow=none;html=1;rounded=0;" edge="1" parent="1">
          <mxGeometry width="50" height="50" relative="1" as="geometry">
            <mxPoint x="1040" y="1150" as="sourcePoint" />
            <mxPoint x="1040" y="1080" as="targetPoint" />
          </mxGeometry>
        </mxCell>
        <mxCell id="oW_7o39hYeS51kGIP4dF-303" value="" style="endArrow=classic;html=1;rounded=0;entryX=-0.069;entryY=0.397;entryDx=0;entryDy=0;entryPerimeter=0;" edge="1" parent="1" target="oW_7o39hYeS51kGIP4dF-253">
          <mxGeometry width="50" height="50" relative="1" as="geometry">
            <mxPoint x="1040" y="1150" as="sourcePoint" />
            <mxPoint x="1090" y="1100" as="targetPoint" />
          </mxGeometry>
        </mxCell>
        <mxCell id="oW_7o39hYeS51kGIP4dF-304" value="" style="endArrow=none;html=1;rounded=0;entryX=0.005;entryY=-0.004;entryDx=0;entryDy=0;entryPerimeter=0;" edge="1" parent="1" target="oW_7o39hYeS51kGIP4dF-307">
          <mxGeometry width="50" height="50" relative="1" as="geometry">
            <mxPoint x="1470" y="600" as="sourcePoint" />
            <mxPoint x="1580" y="600" as="targetPoint" />
          </mxGeometry>
        </mxCell>
        <mxCell id="oW_7o39hYeS51kGIP4dF-305" value="" style="endArrow=none;html=1;rounded=0;entryX=0.022;entryY=-0.008;entryDx=0;entryDy=0;entryPerimeter=0;" edge="1" parent="1" target="oW_7o39hYeS51kGIP4dF-308">
          <mxGeometry width="50" height="50" relative="1" as="geometry">
            <mxPoint x="1470" y="900" as="sourcePoint" />
            <mxPoint x="1560" y="900" as="targetPoint" />
          </mxGeometry>
        </mxCell>
        <mxCell id="oW_7o39hYeS51kGIP4dF-306" value="" style="endArrow=none;html=1;rounded=0;" edge="1" parent="1">
          <mxGeometry width="50" height="50" relative="1" as="geometry">
            <mxPoint x="1470" y="1220" as="sourcePoint" />
            <mxPoint x="1640" y="1220" as="targetPoint" />
          </mxGeometry>
        </mxCell>
        <mxCell id="oW_7o39hYeS51kGIP4dF-307" value="" style="shape=requiredInterface;html=1;verticalLabelPosition=bottom;sketch=0;rotation=-90;" vertex="1" parent="1">
          <mxGeometry x="1590" y="581.25" width="10" height="27.5" as="geometry" />
        </mxCell>
        <mxCell id="oW_7o39hYeS51kGIP4dF-308" value="" style="shape=requiredInterface;html=1;verticalLabelPosition=bottom;sketch=0;rotation=-90;" vertex="1" parent="1">
          <mxGeometry x="1590" y="881.25" width="10" height="27.5" as="geometry" />
        </mxCell>
        <mxCell id="oW_7o39hYeS51kGIP4dF-311" value="" style="group" vertex="1" connectable="0" parent="1">
          <mxGeometry x="1730" y="820" width="240" height="161.25" as="geometry" />
        </mxCell>
        <mxCell id="oW_7o39hYeS51kGIP4dF-309" value="" style="rounded=1;arcSize=10;whiteSpace=wrap;html=1;align=center;" vertex="1" parent="oW_7o39hYeS51kGIP4dF-311">
          <mxGeometry y="-20" width="240" height="181.25" as="geometry" />
        </mxCell>
        <mxCell id="oW_7o39hYeS51kGIP4dF-310" value="serial_tx.vhd" style="text;html=1;align=center;verticalAlign=middle;whiteSpace=wrap;rounded=0;" vertex="1" parent="oW_7o39hYeS51kGIP4dF-311">
          <mxGeometry y="-20" width="80" height="30" as="geometry" />
        </mxCell>
        <mxCell id="oW_7o39hYeS51kGIP4dF-312" value="Ceaser" style="text;html=1;align=center;verticalAlign=middle;whiteSpace=wrap;rounded=0;" vertex="1" parent="oW_7o39hYeS51kGIP4dF-311">
          <mxGeometry y="68.44" width="50" height="24.37" as="geometry" />
        </mxCell>
        <mxCell id="oW_7o39hYeS51kGIP4dF-313" value="Vernam" style="text;html=1;align=center;verticalAlign=middle;whiteSpace=wrap;rounded=0;" vertex="1" parent="oW_7o39hYeS51kGIP4dF-311">
          <mxGeometry y="19.999999999999993" width="50" height="30" as="geometry" />
        </mxCell>
        <mxCell id="oW_7o39hYeS51kGIP4dF-314" value="?" style="text;html=1;align=center;verticalAlign=middle;whiteSpace=wrap;rounded=0;" vertex="1" parent="oW_7o39hYeS51kGIP4dF-311">
          <mxGeometry y="100" width="60" height="30" as="geometry" />
        </mxCell>
        <mxCell id="oW_7o39hYeS51kGIP4dF-320" value="data" style="text;html=1;align=center;verticalAlign=middle;whiteSpace=wrap;rounded=0;" vertex="1" parent="oW_7o39hYeS51kGIP4dF-311">
          <mxGeometry x="210" y="55.620000000000005" width="30" height="30" as="geometry" />
        </mxCell>
        <mxCell id="oW_7o39hYeS51kGIP4dF-315" value="" style="endArrow=classic;html=1;rounded=0;entryX=0;entryY=0.5;entryDx=0;entryDy=0;exitX=0.022;exitY=0.996;exitDx=0;exitDy=0;exitPerimeter=0;" edge="1" parent="1" source="oW_7o39hYeS51kGIP4dF-308" target="oW_7o39hYeS51kGIP4dF-312">
          <mxGeometry width="50" height="50" relative="1" as="geometry">
            <mxPoint x="1610" y="900" as="sourcePoint" />
            <mxPoint x="1720" y="900" as="targetPoint" />
          </mxGeometry>
        </mxCell>
        <mxCell id="oW_7o39hYeS51kGIP4dF-316" value="" style="endArrow=none;html=1;rounded=0;exitX=0.013;exitY=0.991;exitDx=0;exitDy=0;exitPerimeter=0;" edge="1" parent="1" source="oW_7o39hYeS51kGIP4dF-307">
          <mxGeometry width="50" height="50" relative="1" as="geometry">
            <mxPoint x="1610" y="600" as="sourcePoint" />
            <mxPoint x="1660" y="600" as="targetPoint" />
          </mxGeometry>
        </mxCell>
        <mxCell id="oW_7o39hYeS51kGIP4dF-317" value="" style="endArrow=none;html=1;rounded=0;" edge="1" parent="1">
          <mxGeometry width="50" height="50" relative="1" as="geometry">
            <mxPoint x="1660" y="860" as="sourcePoint" />
            <mxPoint x="1660" y="600" as="targetPoint" />
          </mxGeometry>
        </mxCell>
        <mxCell id="oW_7o39hYeS51kGIP4dF-318" value="" style="endArrow=classic;html=1;rounded=0;entryX=-0.009;entryY=0.67;entryDx=0;entryDy=0;entryPerimeter=0;" edge="1" parent="1" target="oW_7o39hYeS51kGIP4dF-313">
          <mxGeometry width="50" height="50" relative="1" as="geometry">
            <mxPoint x="1660" y="860" as="sourcePoint" />
            <mxPoint x="1720" y="860" as="targetPoint" />
          </mxGeometry>
        </mxCell>
        <mxCell id="oW_7o39hYeS51kGIP4dF-319" value="" style="endArrow=classic;html=1;rounded=0;" edge="1" parent="1">
          <mxGeometry width="50" height="50" relative="1" as="geometry">
            <mxPoint x="1970" y="894.83" as="sourcePoint" />
            <mxPoint x="2080" y="895" as="targetPoint" />
          </mxGeometry>
        </mxCell>
        <mxCell id="oW_7o39hYeS51kGIP4dF-321" value="" style="endArrow=classic;html=1;rounded=0;" edge="1" parent="1">
          <mxGeometry width="50" height="50" relative="1" as="geometry">
            <mxPoint x="1640" y="940" as="sourcePoint" />
            <mxPoint x="1730" y="940" as="targetPoint" />
          </mxGeometry>
        </mxCell>
        <mxCell id="oW_7o39hYeS51kGIP4dF-322" value="" style="endArrow=none;html=1;rounded=0;" edge="1" parent="1">
          <mxGeometry width="50" height="50" relative="1" as="geometry">
            <mxPoint x="1640" y="1220" as="sourcePoint" />
            <mxPoint x="1640" y="940" as="targetPoint" />
          </mxGeometry>
        </mxCell>
        <mxCell id="oW_7o39hYeS51kGIP4dF-102" value="seg(6:0)" style="text;html=1;align=center;verticalAlign=middle;whiteSpace=wrap;rounded=0;" vertex="1" parent="1">
          <mxGeometry x="380" y="382.5" width="60" height="30" as="geometry" />
        </mxCell>
        <mxCell id="oW_7o39hYeS51kGIP4dF-104" value="" style="shape=requiredInterface;html=1;verticalLabelPosition=bottom;sketch=0;rotation=-90;" vertex="1" parent="1">
          <mxGeometry x="596.25" y="380" width="10" height="27.5" as="geometry" />
        </mxCell>
        <mxCell id="oW_7o39hYeS51kGIP4dF-106" value="" style="endArrow=none;html=1;rounded=0;entryX=0.015;entryY=0.014;entryDx=0;entryDy=0;entryPerimeter=0;" edge="1" parent="1" target="oW_7o39hYeS51kGIP4dF-104">
          <mxGeometry width="50" height="50" relative="1" as="geometry">
            <mxPoint x="440" y="399" as="sourcePoint" />
            <mxPoint x="570" y="360" as="targetPoint" />
          </mxGeometry>
        </mxCell>
        <mxCell id="oW_7o39hYeS51kGIP4dF-131" value="" style="endArrow=none;html=1;rounded=0;exitX=1;exitY=0.5;exitDx=0;exitDy=0;" edge="1" parent="1" source="oW_7o39hYeS51kGIP4dF-100">
          <mxGeometry width="50" height="50" relative="1" as="geometry">
            <mxPoint x="510" y="490" as="sourcePoint" />
            <mxPoint x="560" y="480" as="targetPoint" />
          </mxGeometry>
        </mxCell>
        <mxCell id="oW_7o39hYeS51kGIP4dF-324" value="" style="endArrow=none;html=1;rounded=0;exitX=0.006;exitY=0.993;exitDx=0;exitDy=0;exitPerimeter=0;entryX=0.007;entryY=0.006;entryDx=0;entryDy=0;entryPerimeter=0;" edge="1" parent="1" source="oW_7o39hYeS51kGIP4dF-104" target="oW_7o39hYeS51kGIP4dF-325">
          <mxGeometry width="50" height="50" relative="1" as="geometry">
            <mxPoint x="620" y="400" as="sourcePoint" />
            <mxPoint x="1010" y="400" as="targetPoint" />
          </mxGeometry>
        </mxCell>
        <mxCell id="oW_7o39hYeS51kGIP4dF-325" value="" style="shape=requiredInterface;html=1;verticalLabelPosition=bottom;sketch=0;rotation=-90;" vertex="1" parent="1">
          <mxGeometry x="1040" y="381.25" width="10" height="27.5" as="geometry" />
        </mxCell>
        <mxCell id="oW_7o39hYeS51kGIP4dF-328" value="" style="endArrow=classic;html=1;rounded=0;exitX=0.039;exitY=1.005;exitDx=0;exitDy=0;exitPerimeter=0;" edge="1" parent="1" source="oW_7o39hYeS51kGIP4dF-325">
          <mxGeometry width="50" height="50" relative="1" as="geometry">
            <mxPoint x="1060" y="400.31" as="sourcePoint" />
            <mxPoint x="2080" y="400" as="targetPoint" />
          </mxGeometry>
        </mxCell>
        <mxCell id="oW_7o39hYeS51kGIP4dF-329" value="" style="endArrow=classic;html=1;rounded=0;" edge="1" parent="1">
          <mxGeometry width="50" height="50" relative="1" as="geometry">
            <mxPoint x="1960" y="380.63" as="sourcePoint" />
            <mxPoint x="2080" y="380" as="targetPoint" />
          </mxGeometry>
        </mxCell>
        <mxCell id="oW_7o39hYeS51kGIP4dF-331" value="" style="endArrow=classic;html=1;rounded=0;" edge="1" parent="1">
          <mxGeometry width="50" height="50" relative="1" as="geometry">
            <mxPoint x="1960" y="360.01" as="sourcePoint" />
            <mxPoint x="2080" y="360" as="targetPoint" />
          </mxGeometry>
        </mxCell>
        <mxCell id="oW_7o39hYeS51kGIP4dF-332" value="" style="endArrow=classic;html=1;rounded=0;" edge="1" parent="1">
          <mxGeometry width="50" height="50" relative="1" as="geometry">
            <mxPoint x="1960" y="340" as="sourcePoint" />
            <mxPoint x="2080" y="340" as="targetPoint" />
          </mxGeometry>
        </mxCell>
        <mxCell id="oW_7o39hYeS51kGIP4dF-333" value="" style="endArrow=classic;html=1;rounded=0;" edge="1" parent="1">
          <mxGeometry width="50" height="50" relative="1" as="geometry">
            <mxPoint x="1960" y="420" as="sourcePoint" />
            <mxPoint x="2080" y="420" as="targetPoint" />
          </mxGeometry>
        </mxCell>
        <mxCell id="oW_7o39hYeS51kGIP4dF-334" value="" style="endArrow=classic;html=1;rounded=0;" edge="1" parent="1">
          <mxGeometry width="50" height="50" relative="1" as="geometry">
            <mxPoint x="1960" y="440" as="sourcePoint" />
            <mxPoint x="2080" y="440" as="targetPoint" />
          </mxGeometry>
        </mxCell>
        <mxCell id="oW_7o39hYeS51kGIP4dF-335" value="" style="endArrow=classic;html=1;rounded=0;" edge="1" parent="1">
          <mxGeometry width="50" height="50" relative="1" as="geometry">
            <mxPoint x="1960" y="460" as="sourcePoint" />
            <mxPoint x="2080" y="460" as="targetPoint" />
          </mxGeometry>
        </mxCell>
        <mxCell id="oW_7o39hYeS51kGIP4dF-336" value="" style="endArrow=none;html=1;rounded=0;" edge="1" parent="1">
          <mxGeometry width="50" height="50" relative="1" as="geometry">
            <mxPoint x="1960" y="460" as="sourcePoint" />
            <mxPoint x="1960" y="340" as="targetPoint" />
          </mxGeometry>
        </mxCell>
        <mxCell id="oW_7o39hYeS51kGIP4dF-101" value="AN(7:0)" style="text;html=1;align=center;verticalAlign=middle;whiteSpace=wrap;rounded=0;" vertex="1" parent="1">
          <mxGeometry x="380" y="290" width="60" height="30" as="geometry" />
        </mxCell>
        <mxCell id="oW_7o39hYeS51kGIP4dF-123" value="" style="shape=requiredInterface;html=1;verticalLabelPosition=bottom;sketch=0;rotation=-90;" vertex="1" parent="1">
          <mxGeometry x="596.25" y="290" width="10" height="27.5" as="geometry" />
        </mxCell>
        <mxCell id="oW_7o39hYeS51kGIP4dF-126" value="" style="endArrow=none;html=1;rounded=0;entryX=0.038;entryY=0.005;entryDx=0;entryDy=0;entryPerimeter=0;exitX=1.01;exitY=0.627;exitDx=0;exitDy=0;exitPerimeter=0;" edge="1" parent="1" source="oW_7o39hYeS51kGIP4dF-101" target="oW_7o39hYeS51kGIP4dF-123">
          <mxGeometry width="50" height="50" relative="1" as="geometry">
            <mxPoint x="460" y="308.75" as="sourcePoint" />
            <mxPoint x="580" y="308.75" as="targetPoint" />
          </mxGeometry>
        </mxCell>
        <mxCell id="oW_7o39hYeS51kGIP4dF-341" value="" style="endArrow=none;html=1;rounded=0;exitX=-0.001;exitY=0.993;exitDx=0;exitDy=0;exitPerimeter=0;entryX=0.029;entryY=0.016;entryDx=0;entryDy=0;entryPerimeter=0;" edge="1" parent="1" source="oW_7o39hYeS51kGIP4dF-123" target="oW_7o39hYeS51kGIP4dF-342">
          <mxGeometry width="50" height="50" relative="1" as="geometry">
            <mxPoint x="620" y="310" as="sourcePoint" />
            <mxPoint x="1030" y="310" as="targetPoint" />
            <Array as="points" />
          </mxGeometry>
        </mxCell>
        <mxCell id="oW_7o39hYeS51kGIP4dF-342" value="" style="shape=requiredInterface;html=1;verticalLabelPosition=bottom;sketch=0;rotation=-90;" vertex="1" parent="1">
          <mxGeometry x="1040" y="291.25" width="10" height="27.5" as="geometry" />
        </mxCell>
        <mxCell id="oW_7o39hYeS51kGIP4dF-343" value="" style="endArrow=classic;html=1;rounded=0;exitX=0.016;exitY=0.987;exitDx=0;exitDy=0;exitPerimeter=0;" edge="1" parent="1" source="oW_7o39hYeS51kGIP4dF-342">
          <mxGeometry width="50" height="50" relative="1" as="geometry">
            <mxPoint x="1080" y="310" as="sourcePoint" />
            <mxPoint x="2080" y="310" as="targetPoint" />
          </mxGeometry>
        </mxCell>
        <mxCell id="m6kMrKqbPUgnieQ15Dgj-1" value="" style="ellipse;whiteSpace=wrap;html=1;fillColor=#000000;gradientColor=default;labelPosition=left;verticalLabelPosition=bottom;align=right;verticalAlign=top;points=[[0,0,0,0,0],[0,0.5,0,0,0],[0,1,0,0,0],[0.5,0,0,0,0],[0.5,1,0,0,10],[1,0,0,0,0],[1,0.5,0,0,0],[1,1,0,0,0]];" vertex="1" parent="1">
          <mxGeometry x="835" y="875" width="10" height="10" as="geometry" />
        </mxCell>
        <mxCell id="m6kMrKqbPUgnieQ15Dgj-7" value="" style="ellipse;whiteSpace=wrap;html=1;fillColor=#000000;gradientColor=default;labelPosition=left;verticalLabelPosition=bottom;align=right;verticalAlign=top;points=[[0,0,0,0,0],[0,0.5,0,0,0],[0,1,0,0,0],[0.5,0,0,0,0],[0.5,1,0,0,10],[1,0,0,0,0],[1,0.5,0,0,0],[1,1,0,0,0]];" vertex="1" parent="1">
          <mxGeometry x="595" y="235" width="10" height="10" as="geometry" />
        </mxCell>
        <mxCell id="m6kMrKqbPUgnieQ15Dgj-9" value="" style="ellipse;whiteSpace=wrap;html=1;fillColor=#000000;gradientColor=default;labelPosition=left;verticalLabelPosition=bottom;align=right;verticalAlign=top;points=[[0,0,0,0,0],[0,0.5,0,0,0],[0,1,0,0,0],[0.5,0,0,0,0],[0.5,1,0,0,10],[1,0,0,0,0],[1,0.5,0,0,0],[1,1,0,0,0]];" vertex="1" parent="1">
          <mxGeometry x="155" y="235" width="10" height="10" as="geometry" />
        </mxCell>
        <mxCell id="m6kMrKqbPUgnieQ15Dgj-10" value="" style="ellipse;whiteSpace=wrap;html=1;fillColor=#000000;gradientColor=default;labelPosition=left;verticalLabelPosition=bottom;align=right;verticalAlign=top;points=[[0,0,0,0,0],[0,0.5,0,0,0],[0,1,0,0,0],[0.5,0,0,0,0],[0.5,1,0,0,10],[1,0,0,0,0],[1,0.5,0,0,0],[1,1,0,0,0]];" vertex="1" parent="1">
          <mxGeometry x="1595" y="755" width="10" height="10" as="geometry" />
        </mxCell>
        <mxCell id="m6kMrKqbPUgnieQ15Dgj-12" value="" style="ellipse;whiteSpace=wrap;html=1;fillColor=#000000;gradientColor=default;labelPosition=left;verticalLabelPosition=bottom;align=right;verticalAlign=top;points=[[0,0,0,0,0],[0,0.5,0,0,0],[0,1,0,0,0],[0.5,0,0,0,0],[0.5,1,0,0,10],[1,0,0,0,0],[1,0.5,0,0,0],[1,1,0,0,0]];" vertex="1" parent="1">
          <mxGeometry x="1035" y="435" width="10" height="10" as="geometry" />
        </mxCell>
      </root>
    </mxGraphModel>
  </diagram>
  <diagram name="Kopie z Page-1" id="BIDyMiO-t2WPUDmReugP">
    <mxGraphModel dx="4738" dy="1992" grid="1" gridSize="10" guides="1" tooltips="1" connect="1" arrows="1" fold="1" page="1" pageScale="1" pageWidth="1100" pageHeight="850" background="none" math="0" shadow="0">
      <root>
        <mxCell id="h9owmoBPIT-_znsyck8o-0" />
        <mxCell id="h9owmoBPIT-_znsyck8o-1" parent="h9owmoBPIT-_znsyck8o-0" />
        <mxCell id="h9owmoBPIT-_znsyck8o-2" value="" style="whiteSpace=wrap;html=1;align=center;" vertex="1" parent="h9owmoBPIT-_znsyck8o-1">
          <mxGeometry x="-20" y="160" width="2060" height="1230" as="geometry" />
        </mxCell>
        <mxCell id="h9owmoBPIT-_znsyck8o-3" value="" style="group" vertex="1" connectable="0" parent="h9owmoBPIT-_znsyck8o-1">
          <mxGeometry x="-200" y="220" width="180" height="30" as="geometry" />
        </mxCell>
        <mxCell id="h9owmoBPIT-_znsyck8o-4" value="" style="endArrow=classic;html=1;rounded=0;" edge="1" parent="h9owmoBPIT-_znsyck8o-3">
          <mxGeometry width="50" height="50" relative="1" as="geometry">
            <mxPoint x="80" y="20" as="sourcePoint" />
            <mxPoint x="180" y="20" as="targetPoint" />
          </mxGeometry>
        </mxCell>
        <mxCell id="h9owmoBPIT-_znsyck8o-5" value="CLK100MHZ" style="text;html=1;align=center;verticalAlign=middle;whiteSpace=wrap;rounded=0;" vertex="1" parent="h9owmoBPIT-_znsyck8o-3">
          <mxGeometry width="80" height="30" as="geometry" />
        </mxCell>
        <mxCell id="h9owmoBPIT-_znsyck8o-6" value="" style="group" vertex="1" connectable="0" parent="h9owmoBPIT-_znsyck8o-1">
          <mxGeometry x="-180" y="380" width="160" height="30" as="geometry" />
        </mxCell>
        <mxCell id="h9owmoBPIT-_znsyck8o-7" value="" style="endArrow=classic;html=1;rounded=0;" edge="1" parent="h9owmoBPIT-_znsyck8o-6">
          <mxGeometry width="50" height="50" relative="1" as="geometry">
            <mxPoint x="60" y="20" as="sourcePoint" />
            <mxPoint x="160" y="20" as="targetPoint" />
          </mxGeometry>
        </mxCell>
        <mxCell id="h9owmoBPIT-_znsyck8o-8" value="BTNU" style="text;html=1;align=center;verticalAlign=middle;whiteSpace=wrap;rounded=0;" vertex="1" parent="h9owmoBPIT-_znsyck8o-6">
          <mxGeometry x="20" width="40" height="30" as="geometry" />
        </mxCell>
        <mxCell id="h9owmoBPIT-_znsyck8o-9" value="" style="group" vertex="1" connectable="0" parent="h9owmoBPIT-_znsyck8o-1">
          <mxGeometry x="-180" y="260" width="160" height="30" as="geometry" />
        </mxCell>
        <mxCell id="h9owmoBPIT-_znsyck8o-10" value="" style="endArrow=classic;html=1;rounded=0;" edge="1" parent="h9owmoBPIT-_znsyck8o-9">
          <mxGeometry width="50" height="50" relative="1" as="geometry">
            <mxPoint x="60" y="20" as="sourcePoint" />
            <mxPoint x="160" y="20" as="targetPoint" />
          </mxGeometry>
        </mxCell>
        <mxCell id="h9owmoBPIT-_znsyck8o-11" value="BTND" style="text;html=1;align=center;verticalAlign=middle;whiteSpace=wrap;rounded=0;" vertex="1" parent="h9owmoBPIT-_znsyck8o-9">
          <mxGeometry x="20" width="40" height="30" as="geometry" />
        </mxCell>
        <mxCell id="h9owmoBPIT-_znsyck8o-12" value="" style="group" vertex="1" connectable="0" parent="h9owmoBPIT-_znsyck8o-1">
          <mxGeometry x="-180" y="300" width="160" height="30" as="geometry" />
        </mxCell>
        <mxCell id="h9owmoBPIT-_znsyck8o-13" value="" style="endArrow=classic;html=1;rounded=0;" edge="1" parent="h9owmoBPIT-_znsyck8o-12">
          <mxGeometry width="50" height="50" relative="1" as="geometry">
            <mxPoint x="60" y="20" as="sourcePoint" />
            <mxPoint x="160" y="20" as="targetPoint" />
          </mxGeometry>
        </mxCell>
        <mxCell id="h9owmoBPIT-_znsyck8o-14" value="BTNL" style="text;html=1;align=center;verticalAlign=middle;whiteSpace=wrap;rounded=0;" vertex="1" parent="h9owmoBPIT-_znsyck8o-12">
          <mxGeometry x="20" width="40" height="30" as="geometry" />
        </mxCell>
        <mxCell id="h9owmoBPIT-_znsyck8o-15" value="" style="group" vertex="1" connectable="0" parent="h9owmoBPIT-_znsyck8o-1">
          <mxGeometry x="-180" y="340" width="160" height="30" as="geometry" />
        </mxCell>
        <mxCell id="h9owmoBPIT-_znsyck8o-16" value="" style="endArrow=classic;html=1;rounded=0;" edge="1" parent="h9owmoBPIT-_znsyck8o-15">
          <mxGeometry width="50" height="50" relative="1" as="geometry">
            <mxPoint x="60" y="20" as="sourcePoint" />
            <mxPoint x="160" y="20" as="targetPoint" />
          </mxGeometry>
        </mxCell>
        <mxCell id="h9owmoBPIT-_znsyck8o-17" value="BTNR" style="text;html=1;align=center;verticalAlign=middle;whiteSpace=wrap;rounded=0;" vertex="1" parent="h9owmoBPIT-_znsyck8o-15">
          <mxGeometry x="20" width="40" height="30" as="geometry" />
        </mxCell>
        <mxCell id="h9owmoBPIT-_znsyck8o-18" value="top_level.vhd" style="text;html=1;align=center;verticalAlign=middle;whiteSpace=wrap;rounded=0;container=0;" vertex="1" collapsed="1" parent="h9owmoBPIT-_znsyck8o-1">
          <mxGeometry x="-20" y="160" width="120" height="40" as="geometry">
            <mxRectangle x="-10" y="170" width="80" height="30" as="alternateBounds" />
          </mxGeometry>
        </mxCell>
        <mxCell id="h9owmoBPIT-_znsyck8o-19" value="" style="endArrow=none;html=1;rounded=0;" edge="1" parent="h9owmoBPIT-_znsyck8o-1">
          <mxGeometry width="50" height="50" relative="1" as="geometry">
            <mxPoint x="-20" y="240" as="sourcePoint" />
            <mxPoint x="160" y="240" as="targetPoint" />
          </mxGeometry>
        </mxCell>
        <mxCell id="h9owmoBPIT-_znsyck8o-20" value="" style="endArrow=none;html=1;rounded=0;" edge="1" parent="h9owmoBPIT-_znsyck8o-1">
          <mxGeometry width="50" height="50" relative="1" as="geometry">
            <mxPoint x="160" y="310" as="sourcePoint" />
            <mxPoint x="160" y="240" as="targetPoint" />
          </mxGeometry>
        </mxCell>
        <mxCell id="h9owmoBPIT-_znsyck8o-21" value="" style="endArrow=none;html=1;rounded=0;" edge="1" parent="h9owmoBPIT-_znsyck8o-1">
          <mxGeometry width="50" height="50" relative="1" as="geometry">
            <mxPoint x="-20" y="280" as="sourcePoint" />
            <mxPoint x="120" y="280" as="targetPoint" />
          </mxGeometry>
        </mxCell>
        <mxCell id="h9owmoBPIT-_znsyck8o-22" value="" style="endArrow=none;html=1;rounded=0;" edge="1" parent="h9owmoBPIT-_znsyck8o-1">
          <mxGeometry width="50" height="50" relative="1" as="geometry">
            <mxPoint x="120" y="400" as="sourcePoint" />
            <mxPoint x="120" y="280" as="targetPoint" />
          </mxGeometry>
        </mxCell>
        <mxCell id="h9owmoBPIT-_znsyck8o-23" value="" style="endArrow=classic;html=1;rounded=0;entryX=0;entryY=0.426;entryDx=0;entryDy=0;entryPerimeter=0;" edge="1" parent="h9owmoBPIT-_znsyck8o-1">
          <mxGeometry width="50" height="50" relative="1" as="geometry">
            <mxPoint x="120" y="400" as="sourcePoint" />
            <mxPoint x="200" y="399.28" as="targetPoint" />
          </mxGeometry>
        </mxCell>
        <mxCell id="h9owmoBPIT-_znsyck8o-24" value="" style="endArrow=none;html=1;rounded=0;" edge="1" parent="h9owmoBPIT-_znsyck8o-1">
          <mxGeometry width="50" height="50" relative="1" as="geometry">
            <mxPoint x="-20" y="320" as="sourcePoint" />
            <mxPoint x="80" y="320" as="targetPoint" />
          </mxGeometry>
        </mxCell>
        <mxCell id="h9owmoBPIT-_znsyck8o-25" value="" style="endArrow=none;html=1;rounded=0;" edge="1" parent="h9owmoBPIT-_znsyck8o-1">
          <mxGeometry width="50" height="50" relative="1" as="geometry">
            <mxPoint x="80" y="440" as="sourcePoint" />
            <mxPoint x="80" y="320" as="targetPoint" />
            <Array as="points">
              <mxPoint x="80" y="380" />
            </Array>
          </mxGeometry>
        </mxCell>
        <mxCell id="h9owmoBPIT-_znsyck8o-26" value="" style="endArrow=classic;html=1;rounded=0;entryX=0.003;entryY=0.573;entryDx=0;entryDy=0;entryPerimeter=0;" edge="1" parent="h9owmoBPIT-_znsyck8o-1">
          <mxGeometry width="50" height="50" relative="1" as="geometry">
            <mxPoint x="80" y="440" as="sourcePoint" />
            <mxPoint x="201.07999999999993" y="440.4399999999998" as="targetPoint" />
          </mxGeometry>
        </mxCell>
        <mxCell id="h9owmoBPIT-_znsyck8o-27" value="" style="endArrow=none;html=1;rounded=0;" edge="1" parent="h9owmoBPIT-_znsyck8o-1">
          <mxGeometry width="50" height="50" relative="1" as="geometry">
            <mxPoint x="-20" y="360" as="sourcePoint" />
            <mxPoint x="40" y="360" as="targetPoint" />
          </mxGeometry>
        </mxCell>
        <mxCell id="h9owmoBPIT-_znsyck8o-28" value="" style="endArrow=none;html=1;rounded=0;" edge="1" parent="h9owmoBPIT-_znsyck8o-1">
          <mxGeometry width="50" height="50" relative="1" as="geometry">
            <mxPoint x="-20" y="400" as="sourcePoint" />
            <mxPoint y="400" as="targetPoint" />
          </mxGeometry>
        </mxCell>
        <mxCell id="h9owmoBPIT-_znsyck8o-29" value="" style="endArrow=none;html=1;rounded=0;" edge="1" parent="h9owmoBPIT-_znsyck8o-1">
          <mxGeometry width="50" height="50" relative="1" as="geometry">
            <mxPoint x="40" y="480" as="sourcePoint" />
            <mxPoint x="40" y="360" as="targetPoint" />
          </mxGeometry>
        </mxCell>
        <mxCell id="h9owmoBPIT-_znsyck8o-30" value="" style="endArrow=classic;html=1;rounded=0;entryX=0.001;entryY=0.716;entryDx=0;entryDy=0;entryPerimeter=0;" edge="1" parent="h9owmoBPIT-_znsyck8o-1">
          <mxGeometry width="50" height="50" relative="1" as="geometry">
            <mxPoint x="40" y="480" as="sourcePoint" />
            <mxPoint x="200.35999999999967" y="480.48" as="targetPoint" />
          </mxGeometry>
        </mxCell>
        <mxCell id="h9owmoBPIT-_znsyck8o-31" value="" style="endArrow=none;html=1;rounded=0;" edge="1" parent="h9owmoBPIT-_znsyck8o-1">
          <mxGeometry width="50" height="50" relative="1" as="geometry">
            <mxPoint x="160" y="240" as="sourcePoint" />
            <mxPoint x="600" y="240" as="targetPoint" />
          </mxGeometry>
        </mxCell>
        <mxCell id="h9owmoBPIT-_znsyck8o-32" value="" style="rounded=1;arcSize=10;whiteSpace=wrap;html=1;align=center;" vertex="1" parent="h9owmoBPIT-_znsyck8o-1">
          <mxGeometry x="200" y="270" width="240" height="290" as="geometry" />
        </mxCell>
        <mxCell id="h9owmoBPIT-_znsyck8o-33" value="" style="group" vertex="1" connectable="0" parent="h9owmoBPIT-_znsyck8o-1">
          <mxGeometry y="400" width="200.35999999999967" height="120" as="geometry" />
        </mxCell>
        <mxCell id="h9owmoBPIT-_znsyck8o-34" value="" style="endArrow=none;html=1;rounded=0;" edge="1" parent="h9owmoBPIT-_znsyck8o-33">
          <mxGeometry width="50" height="50" relative="1" as="geometry">
            <mxPoint y="120" as="sourcePoint" />
            <mxPoint as="targetPoint" />
          </mxGeometry>
        </mxCell>
        <mxCell id="h9owmoBPIT-_znsyck8o-35" value="" style="endArrow=classic;html=1;rounded=0;entryX=0.001;entryY=0.857;entryDx=0;entryDy=0;entryPerimeter=0;" edge="1" parent="h9owmoBPIT-_znsyck8o-33">
          <mxGeometry width="50" height="50" relative="1" as="geometry">
            <mxPoint y="120" as="sourcePoint" />
            <mxPoint x="200.35999999999967" y="119.96000000000004" as="targetPoint" />
          </mxGeometry>
        </mxCell>
        <mxCell id="h9owmoBPIT-_znsyck8o-36" value="move_to_one" style="text;html=1;align=center;verticalAlign=middle;whiteSpace=wrap;rounded=0;" vertex="1" parent="h9owmoBPIT-_znsyck8o-1">
          <mxGeometry x="200" y="500" width="90" height="40" as="geometry" />
        </mxCell>
        <mxCell id="h9owmoBPIT-_znsyck8o-37" value="move_to_right" style="text;html=1;align=center;verticalAlign=middle;whiteSpace=wrap;rounded=0;" vertex="1" parent="h9owmoBPIT-_znsyck8o-1">
          <mxGeometry x="200.36" y="460" width="89.64" height="40" as="geometry" />
        </mxCell>
        <mxCell id="h9owmoBPIT-_znsyck8o-38" value="enter_text" style="text;html=1;align=center;verticalAlign=middle;whiteSpace=wrap;rounded=0;" vertex="1" parent="h9owmoBPIT-_znsyck8o-1">
          <mxGeometry x="200.36" y="420" width="69.64" height="40" as="geometry" />
        </mxCell>
        <mxCell id="h9owmoBPIT-_znsyck8o-39" value="move_to_zero" style="text;html=1;align=center;verticalAlign=middle;whiteSpace=wrap;rounded=0;" vertex="1" parent="h9owmoBPIT-_znsyck8o-1">
          <mxGeometry x="200" y="380" width="90" height="40" as="geometry" />
        </mxCell>
        <mxCell id="h9owmoBPIT-_znsyck8o-40" value="clk" style="text;html=1;align=center;verticalAlign=middle;whiteSpace=wrap;rounded=0;" vertex="1" parent="h9owmoBPIT-_znsyck8o-1">
          <mxGeometry x="200.36" y="296.25" width="29.64" height="23.75" as="geometry" />
        </mxCell>
        <mxCell id="h9owmoBPIT-_znsyck8o-41" value="7_segmet_display.vhd" style="text;html=1;align=center;verticalAlign=middle;whiteSpace=wrap;rounded=0;" vertex="1" parent="h9owmoBPIT-_znsyck8o-1">
          <mxGeometry x="200.36" y="270" width="139.64" height="30" as="geometry" />
        </mxCell>
        <mxCell id="h9owmoBPIT-_znsyck8o-42" value="" style="group" vertex="1" connectable="0" parent="h9owmoBPIT-_znsyck8o-1">
          <mxGeometry x="240" y="720" width="320" height="410" as="geometry" />
        </mxCell>
        <mxCell id="h9owmoBPIT-_znsyck8o-43" value="" style="rounded=1;arcSize=10;whiteSpace=wrap;html=1;align=center;" vertex="1" parent="h9owmoBPIT-_znsyck8o-42">
          <mxGeometry width="320" height="410" as="geometry" />
        </mxCell>
        <mxCell id="h9owmoBPIT-_znsyck8o-44" value="main.vhd" style="text;html=1;align=center;verticalAlign=middle;whiteSpace=wrap;rounded=0;" vertex="1" parent="h9owmoBPIT-_znsyck8o-42">
          <mxGeometry x="0.4800000000000182" width="66.66666666666666" height="43.92857142857143" as="geometry" />
        </mxCell>
        <mxCell id="h9owmoBPIT-_znsyck8o-45" value="clk" style="text;html=1;align=center;verticalAlign=middle;whiteSpace=wrap;rounded=0;" vertex="1" parent="h9owmoBPIT-_znsyck8o-42">
          <mxGeometry y="60" width="26.666666666666664" height="30" as="geometry" />
        </mxCell>
        <mxCell id="h9owmoBPIT-_znsyck8o-46" value="input_from_display" style="text;html=1;align=center;verticalAlign=middle;whiteSpace=wrap;rounded=0;" vertex="1" parent="h9owmoBPIT-_znsyck8o-42">
          <mxGeometry x="0.48" y="100" width="109.52" height="30" as="geometry" />
        </mxCell>
        <mxCell id="h9owmoBPIT-_znsyck8o-47" value="Code_decode_seed" style="text;html=1;align=center;verticalAlign=middle;whiteSpace=wrap;rounded=0;" vertex="1" parent="h9owmoBPIT-_znsyck8o-42">
          <mxGeometry x="0.48" y="140" width="119.52" height="30" as="geometry" />
        </mxCell>
        <mxCell id="h9owmoBPIT-_znsyck8o-48" value="Reset" style="text;html=1;align=center;verticalAlign=middle;whiteSpace=wrap;rounded=0;" vertex="1" parent="h9owmoBPIT-_znsyck8o-42">
          <mxGeometry x="0.48" y="180" width="39.52" height="30" as="geometry" />
        </mxCell>
        <mxCell id="h9owmoBPIT-_znsyck8o-49" value="Code_vernam_cipher(7:0)" style="text;html=1;align=center;verticalAlign=middle;whiteSpace=wrap;rounded=0;" vertex="1" parent="h9owmoBPIT-_znsyck8o-42">
          <mxGeometry x="180" y="60" width="140" height="30" as="geometry" />
        </mxCell>
        <mxCell id="h9owmoBPIT-_znsyck8o-50" value="Decode_vernam_cipher(7:0)" style="text;html=1;align=center;verticalAlign=middle;whiteSpace=wrap;rounded=0;" vertex="1" parent="h9owmoBPIT-_znsyck8o-42">
          <mxGeometry x="160" y="100" width="160" height="30" as="geometry" />
        </mxCell>
        <mxCell id="h9owmoBPIT-_znsyck8o-51" value="Code_ceaser(7:0)" style="text;html=1;align=center;verticalAlign=middle;whiteSpace=wrap;rounded=0;" vertex="1" parent="h9owmoBPIT-_znsyck8o-42">
          <mxGeometry x="220" y="180" width="100" height="30" as="geometry" />
        </mxCell>
        <mxCell id="h9owmoBPIT-_znsyck8o-52" value="Deode_ceaser(7:0)" style="text;html=1;align=center;verticalAlign=middle;whiteSpace=wrap;rounded=0;" vertex="1" parent="h9owmoBPIT-_znsyck8o-42">
          <mxGeometry x="210" y="220" width="110" height="30" as="geometry" />
        </mxCell>
        <mxCell id="h9owmoBPIT-_znsyck8o-53" value="random_seed(7:0)" style="text;html=1;align=center;verticalAlign=middle;whiteSpace=wrap;rounded=0;" vertex="1" parent="h9owmoBPIT-_znsyck8o-42">
          <mxGeometry x="220" y="140" width="100" height="30" as="geometry" />
        </mxCell>
        <mxCell id="h9owmoBPIT-_znsyck8o-54" value="" style="endArrow=none;html=1;rounded=0;" edge="1" parent="h9owmoBPIT-_znsyck8o-1">
          <mxGeometry width="50" height="50" relative="1" as="geometry">
            <mxPoint x="600" y="680" as="sourcePoint" />
            <mxPoint x="600" y="240" as="targetPoint" />
          </mxGeometry>
        </mxCell>
        <mxCell id="h9owmoBPIT-_znsyck8o-55" value="output_display(7:0)" style="text;html=1;align=center;verticalAlign=middle;whiteSpace=wrap;rounded=0;" vertex="1" parent="h9owmoBPIT-_znsyck8o-1">
          <mxGeometry x="330" y="465" width="110" height="30" as="geometry" />
        </mxCell>
        <mxCell id="h9owmoBPIT-_znsyck8o-56" value="" style="endArrow=classic;html=1;rounded=0;entryX=0.016;entryY=0.6;entryDx=0;entryDy=0;entryPerimeter=0;" edge="1" parent="h9owmoBPIT-_znsyck8o-1" target="h9owmoBPIT-_znsyck8o-40">
          <mxGeometry width="50" height="50" relative="1" as="geometry">
            <mxPoint x="160" y="310" as="sourcePoint" />
            <mxPoint x="200.36" y="320" as="targetPoint" />
          </mxGeometry>
        </mxCell>
        <mxCell id="h9owmoBPIT-_znsyck8o-57" value="" style="endArrow=none;html=1;rounded=0;" edge="1" parent="h9owmoBPIT-_znsyck8o-1">
          <mxGeometry width="50" height="50" relative="1" as="geometry">
            <mxPoint x="560" y="640" as="sourcePoint" />
            <mxPoint x="560" y="480" as="targetPoint" />
          </mxGeometry>
        </mxCell>
        <mxCell id="h9owmoBPIT-_znsyck8o-58" value="" style="endArrow=none;html=1;rounded=0;" edge="1" parent="h9owmoBPIT-_znsyck8o-1">
          <mxGeometry width="50" height="50" relative="1" as="geometry">
            <mxPoint x="200" y="680" as="sourcePoint" />
            <mxPoint x="600" y="680" as="targetPoint" />
          </mxGeometry>
        </mxCell>
        <mxCell id="h9owmoBPIT-_znsyck8o-59" value="" style="endArrow=classic;html=1;rounded=0;" edge="1" parent="h9owmoBPIT-_znsyck8o-1">
          <mxGeometry width="50" height="50" relative="1" as="geometry">
            <mxPoint x="200.36" y="800" as="sourcePoint" />
            <mxPoint x="240.54000000000002" y="800" as="targetPoint" />
          </mxGeometry>
        </mxCell>
        <mxCell id="h9owmoBPIT-_znsyck8o-60" value="" style="endArrow=none;html=1;rounded=0;" edge="1" parent="h9owmoBPIT-_znsyck8o-1">
          <mxGeometry width="50" height="50" relative="1" as="geometry">
            <mxPoint x="200" y="800" as="sourcePoint" />
            <mxPoint x="200" y="680" as="targetPoint" />
          </mxGeometry>
        </mxCell>
        <mxCell id="h9owmoBPIT-_znsyck8o-61" value="" style="endArrow=none;html=1;rounded=0;" edge="1" parent="h9owmoBPIT-_znsyck8o-1">
          <mxGeometry width="50" height="50" relative="1" as="geometry">
            <mxPoint x="160" y="640" as="sourcePoint" />
            <mxPoint x="560" y="640" as="targetPoint" />
          </mxGeometry>
        </mxCell>
        <mxCell id="h9owmoBPIT-_znsyck8o-62" value="" style="endArrow=none;html=1;rounded=0;" edge="1" parent="h9owmoBPIT-_znsyck8o-1">
          <mxGeometry width="50" height="50" relative="1" as="geometry">
            <mxPoint x="160" y="840" as="sourcePoint" />
            <mxPoint x="160" y="640" as="targetPoint" />
          </mxGeometry>
        </mxCell>
        <mxCell id="h9owmoBPIT-_znsyck8o-63" value="" style="endArrow=classic;html=1;rounded=0;entryX=0;entryY=0.32;entryDx=0;entryDy=0;entryPerimeter=0;" edge="1" parent="h9owmoBPIT-_znsyck8o-1">
          <mxGeometry width="50" height="50" relative="1" as="geometry">
            <mxPoint x="160" y="840" as="sourcePoint" />
            <mxPoint x="240" y="840" as="targetPoint" />
          </mxGeometry>
        </mxCell>
        <mxCell id="h9owmoBPIT-_znsyck8o-64" value="" style="endArrow=classic;html=1;rounded=0;entryX=-0.001;entryY=0.681;entryDx=0;entryDy=0;entryPerimeter=0;" edge="1" parent="h9owmoBPIT-_znsyck8o-1">
          <mxGeometry width="50" height="50" relative="1" as="geometry">
            <mxPoint x="-20" y="920" as="sourcePoint" />
            <mxPoint x="239.99999999999977" y="920" as="targetPoint" />
          </mxGeometry>
        </mxCell>
        <mxCell id="h9owmoBPIT-_znsyck8o-65" value="CA" style="text;html=1;align=center;verticalAlign=middle;whiteSpace=wrap;rounded=0;" vertex="1" parent="h9owmoBPIT-_znsyck8o-1">
          <mxGeometry x="2080" y="330" width="20" height="21.25" as="geometry" />
        </mxCell>
        <mxCell id="h9owmoBPIT-_znsyck8o-66" value="CB" style="text;html=1;align=center;verticalAlign=middle;whiteSpace=wrap;rounded=0;" vertex="1" parent="h9owmoBPIT-_znsyck8o-1">
          <mxGeometry x="2080" y="350" width="20" height="20" as="geometry" />
        </mxCell>
        <mxCell id="h9owmoBPIT-_znsyck8o-67" value="CC" style="text;html=1;align=center;verticalAlign=middle;whiteSpace=wrap;rounded=0;" vertex="1" parent="h9owmoBPIT-_znsyck8o-1">
          <mxGeometry x="2080" y="370" width="20" height="20" as="geometry" />
        </mxCell>
        <mxCell id="h9owmoBPIT-_znsyck8o-68" value="CD" style="text;html=1;align=center;verticalAlign=middle;whiteSpace=wrap;rounded=0;" vertex="1" parent="h9owmoBPIT-_znsyck8o-1">
          <mxGeometry x="2080" y="388.75" width="20" height="20" as="geometry" />
        </mxCell>
        <mxCell id="h9owmoBPIT-_znsyck8o-69" value="CE" style="text;html=1;align=center;verticalAlign=middle;whiteSpace=wrap;rounded=0;" vertex="1" parent="h9owmoBPIT-_znsyck8o-1">
          <mxGeometry x="2080" y="408.75" width="20" height="20" as="geometry" />
        </mxCell>
        <mxCell id="h9owmoBPIT-_znsyck8o-70" value="CF" style="text;html=1;align=center;verticalAlign=middle;whiteSpace=wrap;rounded=0;" vertex="1" parent="h9owmoBPIT-_znsyck8o-1">
          <mxGeometry x="2080" y="431.25" width="20" height="17.5" as="geometry" />
        </mxCell>
        <mxCell id="h9owmoBPIT-_znsyck8o-71" value="CG" style="text;html=1;align=center;verticalAlign=middle;whiteSpace=wrap;rounded=0;" vertex="1" parent="h9owmoBPIT-_znsyck8o-1">
          <mxGeometry x="2080" y="448.75" width="20" height="20" as="geometry" />
        </mxCell>
        <mxCell id="h9owmoBPIT-_znsyck8o-72" value="seg(6)" style="text;html=1;align=center;verticalAlign=middle;whiteSpace=wrap;rounded=0;" vertex="1" parent="h9owmoBPIT-_znsyck8o-1">
          <mxGeometry x="1910" y="455.63" width="60" height="20" as="geometry" />
        </mxCell>
        <mxCell id="h9owmoBPIT-_znsyck8o-73" value="seg(0)" style="text;html=1;align=center;verticalAlign=middle;whiteSpace=wrap;rounded=0;" vertex="1" parent="h9owmoBPIT-_znsyck8o-1">
          <mxGeometry x="1910" y="320" width="60" height="20" as="geometry" />
        </mxCell>
        <mxCell id="h9owmoBPIT-_znsyck8o-74" value="" style="endArrow=classic;html=1;rounded=0;" edge="1" parent="h9owmoBPIT-_znsyck8o-1">
          <mxGeometry width="50" height="50" relative="1" as="geometry">
            <mxPoint x="760" y="570" as="sourcePoint" />
            <mxPoint x="1100" y="570" as="targetPoint" />
            <Array as="points">
              <mxPoint x="1000" y="570" />
            </Array>
          </mxGeometry>
        </mxCell>
        <mxCell id="h9owmoBPIT-_znsyck8o-75" value="" style="group" vertex="1" connectable="0" parent="h9owmoBPIT-_znsyck8o-1">
          <mxGeometry x="-160" y="900" width="160" height="30" as="geometry" />
        </mxCell>
        <mxCell id="h9owmoBPIT-_znsyck8o-76" value="" style="endArrow=classic;html=1;rounded=0;" edge="1" parent="h9owmoBPIT-_znsyck8o-75">
          <mxGeometry width="50" height="50" relative="1" as="geometry">
            <mxPoint x="40" y="20" as="sourcePoint" />
            <mxPoint x="140" y="20" as="targetPoint" />
          </mxGeometry>
        </mxCell>
        <mxCell id="h9owmoBPIT-_znsyck8o-77" value="BTNC" style="text;html=1;align=center;verticalAlign=middle;whiteSpace=wrap;rounded=0;" vertex="1" parent="h9owmoBPIT-_znsyck8o-75">
          <mxGeometry width="40" height="30" as="geometry" />
        </mxCell>
        <mxCell id="h9owmoBPIT-_znsyck8o-78" value="" style="endArrow=classic;html=1;rounded=0;entryX=-0.004;entryY=0.388;entryDx=0;entryDy=0;entryPerimeter=0;" edge="1" parent="h9owmoBPIT-_znsyck8o-1" target="h9owmoBPIT-_znsyck8o-43">
          <mxGeometry width="50" height="50" relative="1" as="geometry">
            <mxPoint x="-20" y="880" as="sourcePoint" />
            <mxPoint x="220" y="960" as="targetPoint" />
          </mxGeometry>
        </mxCell>
        <mxCell id="h9owmoBPIT-_znsyck8o-79" value="" style="endArrow=classic;html=1;rounded=0;" edge="1" parent="h9owmoBPIT-_znsyck8o-1">
          <mxGeometry width="50" height="50" relative="1" as="geometry">
            <mxPoint x="-120" y="880" as="sourcePoint" />
            <mxPoint x="-20" y="880" as="targetPoint" />
          </mxGeometry>
        </mxCell>
        <mxCell id="h9owmoBPIT-_znsyck8o-80" value="SWC(4:0)" style="text;html=1;align=center;verticalAlign=middle;whiteSpace=wrap;rounded=0;" vertex="1" parent="h9owmoBPIT-_znsyck8o-1">
          <mxGeometry x="-180" y="860" width="60" height="30" as="geometry" />
        </mxCell>
        <mxCell id="h9owmoBPIT-_znsyck8o-81" value="" style="endArrow=classic;html=1;rounded=0;" edge="1" parent="h9owmoBPIT-_znsyck8o-1">
          <mxGeometry width="50" height="50" relative="1" as="geometry">
            <mxPoint x="800" y="610" as="sourcePoint" />
            <mxPoint x="1100" y="610" as="targetPoint" />
            <Array as="points">
              <mxPoint x="1000" y="610" />
            </Array>
          </mxGeometry>
        </mxCell>
        <mxCell id="h9owmoBPIT-_znsyck8o-82" value="" style="endArrow=classic;html=1;rounded=0;" edge="1" parent="h9owmoBPIT-_znsyck8o-1">
          <mxGeometry width="50" height="50" relative="1" as="geometry">
            <mxPoint x="840" y="650" as="sourcePoint" />
            <mxPoint x="1100" y="650" as="targetPoint" />
            <Array as="points">
              <mxPoint x="1000" y="650" />
            </Array>
          </mxGeometry>
        </mxCell>
        <mxCell id="h9owmoBPIT-_znsyck8o-83" value="" style="group" vertex="1" connectable="0" parent="h9owmoBPIT-_znsyck8o-1">
          <mxGeometry x="1100" y="760" width="370" height="270" as="geometry" />
        </mxCell>
        <mxCell id="h9owmoBPIT-_znsyck8o-84" value="" style="group" vertex="1" connectable="0" parent="h9owmoBPIT-_znsyck8o-83">
          <mxGeometry y="40" width="370" height="230" as="geometry" />
        </mxCell>
        <mxCell id="h9owmoBPIT-_znsyck8o-85" value="" style="rounded=1;arcSize=10;whiteSpace=wrap;html=1;align=center;" vertex="1" parent="h9owmoBPIT-_znsyck8o-84">
          <mxGeometry y="-18.95" width="370" height="238.95" as="geometry" />
        </mxCell>
        <mxCell id="h9owmoBPIT-_znsyck8o-86" value="clk" style="text;html=1;align=center;verticalAlign=middle;whiteSpace=wrap;rounded=0;" vertex="1" parent="h9owmoBPIT-_znsyck8o-84">
          <mxGeometry y="11.04736842105263" width="30" height="28.421052631578945" as="geometry" />
        </mxCell>
        <mxCell id="h9owmoBPIT-_znsyck8o-87" value="code_input" style="text;html=1;align=center;verticalAlign=middle;whiteSpace=wrap;rounded=0;" vertex="1" parent="h9owmoBPIT-_znsyck8o-84">
          <mxGeometry y="86.31" width="70" height="28.42" as="geometry" />
        </mxCell>
        <mxCell id="h9owmoBPIT-_znsyck8o-88" value="decode_input" style="text;html=1;align=center;verticalAlign=middle;whiteSpace=wrap;rounded=0;" vertex="1" parent="h9owmoBPIT-_znsyck8o-84">
          <mxGeometry y="130" width="80" height="28.42" as="geometry" />
        </mxCell>
        <mxCell id="h9owmoBPIT-_znsyck8o-89" value="SW(1:0)" style="text;html=1;align=center;verticalAlign=middle;whiteSpace=wrap;rounded=0;" vertex="1" parent="h9owmoBPIT-_znsyck8o-84">
          <mxGeometry y="170.00157894736842" width="60" height="28.421052631578945" as="geometry" />
        </mxCell>
        <mxCell id="h9owmoBPIT-_znsyck8o-90" value="Ceaser_cipher.vhd" style="text;html=1;align=center;verticalAlign=middle;whiteSpace=wrap;rounded=0;" vertex="1" parent="h9owmoBPIT-_znsyck8o-84">
          <mxGeometry x="10" y="-18.95" width="100" height="30" as="geometry" />
        </mxCell>
        <mxCell id="h9owmoBPIT-_znsyck8o-91" value="random_seed" style="text;html=1;align=center;verticalAlign=middle;whiteSpace=wrap;rounded=0;" vertex="1" parent="h9owmoBPIT-_znsyck8o-84">
          <mxGeometry y="50" width="80" height="28.42" as="geometry" />
        </mxCell>
        <mxCell id="h9owmoBPIT-_znsyck8o-92" value="" style="group" vertex="1" connectable="0" parent="h9owmoBPIT-_znsyck8o-1">
          <mxGeometry x="1100" y="460" width="370" height="270" as="geometry" />
        </mxCell>
        <mxCell id="h9owmoBPIT-_znsyck8o-93" value="" style="group" vertex="1" connectable="0" parent="h9owmoBPIT-_znsyck8o-92">
          <mxGeometry y="40" width="370" height="230" as="geometry" />
        </mxCell>
        <mxCell id="h9owmoBPIT-_znsyck8o-94" value="" style="rounded=1;arcSize=10;whiteSpace=wrap;html=1;align=center;" vertex="1" parent="h9owmoBPIT-_znsyck8o-93">
          <mxGeometry y="-18.95" width="370" height="238.95" as="geometry" />
        </mxCell>
        <mxCell id="h9owmoBPIT-_znsyck8o-95" value="clk" style="text;html=1;align=center;verticalAlign=middle;whiteSpace=wrap;rounded=0;" vertex="1" parent="h9owmoBPIT-_znsyck8o-93">
          <mxGeometry y="18.94736842105263" width="30" height="28.421052631578945" as="geometry" />
        </mxCell>
        <mxCell id="h9owmoBPIT-_znsyck8o-96" value="code_input" style="text;html=1;align=center;verticalAlign=middle;whiteSpace=wrap;rounded=0;" vertex="1" parent="h9owmoBPIT-_znsyck8o-93">
          <mxGeometry y="66.32000000000001" width="70" height="28.42" as="geometry" />
        </mxCell>
        <mxCell id="h9owmoBPIT-_znsyck8o-97" value="decode_input" style="text;html=1;align=center;verticalAlign=middle;whiteSpace=wrap;rounded=0;" vertex="1" parent="h9owmoBPIT-_znsyck8o-93">
          <mxGeometry y="94.74" width="80" height="28.42" as="geometry" />
        </mxCell>
        <mxCell id="h9owmoBPIT-_znsyck8o-98" value="SW(1:0)" style="text;html=1;align=center;verticalAlign=middle;whiteSpace=wrap;rounded=0;" vertex="1" parent="h9owmoBPIT-_znsyck8o-93">
          <mxGeometry y="170.00157894736842" width="60" height="28.421052631578945" as="geometry" />
        </mxCell>
        <mxCell id="h9owmoBPIT-_znsyck8o-99" value="Vernam_cipher.vhd" style="text;html=1;align=center;verticalAlign=middle;whiteSpace=wrap;rounded=0;" vertex="1" parent="h9owmoBPIT-_znsyck8o-93">
          <mxGeometry x="10" y="-18.95" width="110" height="30" as="geometry" />
        </mxCell>
        <mxCell id="h9owmoBPIT-_znsyck8o-100" value="random_seed" style="text;html=1;align=center;verticalAlign=middle;whiteSpace=wrap;rounded=0;" vertex="1" parent="h9owmoBPIT-_znsyck8o-93">
          <mxGeometry y="132.63" width="80" height="28.42" as="geometry" />
        </mxCell>
        <mxCell id="h9owmoBPIT-_znsyck8o-101" value="" style="group" vertex="1" connectable="0" parent="h9owmoBPIT-_znsyck8o-1">
          <mxGeometry x="1100" y="1080" width="370" height="270" as="geometry" />
        </mxCell>
        <mxCell id="h9owmoBPIT-_znsyck8o-102" value="" style="group" vertex="1" connectable="0" parent="h9owmoBPIT-_znsyck8o-101">
          <mxGeometry y="40" width="370" height="230" as="geometry" />
        </mxCell>
        <mxCell id="h9owmoBPIT-_znsyck8o-103" value="" style="rounded=1;arcSize=10;whiteSpace=wrap;html=1;align=center;" vertex="1" parent="h9owmoBPIT-_znsyck8o-102">
          <mxGeometry y="-18.95" width="370" height="238.95" as="geometry" />
        </mxCell>
        <mxCell id="h9owmoBPIT-_znsyck8o-104" value="clk" style="text;html=1;align=center;verticalAlign=middle;whiteSpace=wrap;rounded=0;" vertex="1" parent="h9owmoBPIT-_znsyck8o-102">
          <mxGeometry y="18.94736842105263" width="30" height="28.421052631578945" as="geometry" />
        </mxCell>
        <mxCell id="h9owmoBPIT-_znsyck8o-105" value="input" style="text;html=1;align=center;verticalAlign=middle;whiteSpace=wrap;rounded=0;" vertex="1" parent="h9owmoBPIT-_znsyck8o-102">
          <mxGeometry y="56.84210526315789" width="40" height="28.421052631578945" as="geometry" />
        </mxCell>
        <mxCell id="h9owmoBPIT-_znsyck8o-106" value="code_input" style="text;html=1;align=center;verticalAlign=middle;whiteSpace=wrap;rounded=0;" vertex="1" parent="h9owmoBPIT-_znsyck8o-102">
          <mxGeometry y="94.73684210526315" width="70" height="28.421052631578945" as="geometry" />
        </mxCell>
        <mxCell id="h9owmoBPIT-_znsyck8o-107" value="SW(1:0)" style="text;html=1;align=center;verticalAlign=middle;whiteSpace=wrap;rounded=0;" vertex="1" parent="h9owmoBPIT-_znsyck8o-102">
          <mxGeometry y="132.6315789473684" width="60" height="28.421052631578945" as="geometry" />
        </mxCell>
        <mxCell id="h9owmoBPIT-_znsyck8o-108" value="?" style="text;html=1;align=center;verticalAlign=middle;whiteSpace=wrap;rounded=0;" vertex="1" parent="h9owmoBPIT-_znsyck8o-102">
          <mxGeometry x="10" y="-18.950000000000045" width="90" height="30" as="geometry" />
        </mxCell>
        <mxCell id="h9owmoBPIT-_znsyck8o-109" value="random_seed" style="text;html=1;align=center;verticalAlign=middle;whiteSpace=wrap;rounded=0;" vertex="1" parent="h9owmoBPIT-_znsyck8o-102">
          <mxGeometry y="170" width="80" height="28.42" as="geometry" />
        </mxCell>
        <mxCell id="h9owmoBPIT-_znsyck8o-110" value="" style="endArrow=none;html=1;rounded=0;" edge="1" parent="h9owmoBPIT-_znsyck8o-1">
          <mxGeometry width="50" height="50" relative="1" as="geometry">
            <mxPoint x="760" y="800" as="sourcePoint" />
            <mxPoint x="760" y="570" as="targetPoint" />
          </mxGeometry>
        </mxCell>
        <mxCell id="h9owmoBPIT-_znsyck8o-111" value="" style="endArrow=none;html=1;rounded=0;" edge="1" parent="h9owmoBPIT-_znsyck8o-1">
          <mxGeometry width="50" height="50" relative="1" as="geometry">
            <mxPoint x="560" y="800" as="sourcePoint" />
            <mxPoint x="760" y="800" as="targetPoint" />
          </mxGeometry>
        </mxCell>
        <mxCell id="h9owmoBPIT-_znsyck8o-112" value="" style="endArrow=none;html=1;rounded=0;" edge="1" parent="h9owmoBPIT-_znsyck8o-1">
          <mxGeometry width="50" height="50" relative="1" as="geometry">
            <mxPoint x="800" y="840" as="sourcePoint" />
            <mxPoint x="800" y="610" as="targetPoint" />
          </mxGeometry>
        </mxCell>
        <mxCell id="h9owmoBPIT-_znsyck8o-113" value="" style="endArrow=none;html=1;rounded=0;exitX=1.002;exitY=0.677;exitDx=0;exitDy=0;exitPerimeter=0;" edge="1" parent="h9owmoBPIT-_znsyck8o-1" source="h9owmoBPIT-_znsyck8o-50">
          <mxGeometry width="50" height="50" relative="1" as="geometry">
            <mxPoint x="750" y="890" as="sourcePoint" />
            <mxPoint x="800" y="840" as="targetPoint" />
          </mxGeometry>
        </mxCell>
        <mxCell id="h9owmoBPIT-_znsyck8o-114" value="" style="endArrow=none;html=1;rounded=0;" edge="1" parent="h9owmoBPIT-_znsyck8o-1">
          <mxGeometry width="50" height="50" relative="1" as="geometry">
            <mxPoint x="840" y="880" as="sourcePoint" />
            <mxPoint x="840" y="650" as="targetPoint" />
          </mxGeometry>
        </mxCell>
        <mxCell id="h9owmoBPIT-_znsyck8o-115" value="" style="endArrow=none;html=1;rounded=0;exitX=1.005;exitY=0.667;exitDx=0;exitDy=0;exitPerimeter=0;" edge="1" parent="h9owmoBPIT-_znsyck8o-1" source="h9owmoBPIT-_znsyck8o-53">
          <mxGeometry width="50" height="50" relative="1" as="geometry">
            <mxPoint x="630" y="890" as="sourcePoint" />
            <mxPoint x="840" y="880" as="targetPoint" />
          </mxGeometry>
        </mxCell>
        <mxCell id="h9owmoBPIT-_znsyck8o-116" value="" style="endArrow=none;html=1;rounded=0;" edge="1" parent="h9owmoBPIT-_znsyck8o-1">
          <mxGeometry width="50" height="50" relative="1" as="geometry">
            <mxPoint x="840" y="880" as="sourcePoint" />
            <mxPoint x="910" y="880" as="targetPoint" />
          </mxGeometry>
        </mxCell>
        <mxCell id="h9owmoBPIT-_znsyck8o-117" value="" style="endArrow=none;html=1;rounded=0;" edge="1" parent="h9owmoBPIT-_znsyck8o-1">
          <mxGeometry width="50" height="50" relative="1" as="geometry">
            <mxPoint x="910" y="880" as="sourcePoint" />
            <mxPoint x="910" y="870" as="targetPoint" />
          </mxGeometry>
        </mxCell>
        <mxCell id="h9owmoBPIT-_znsyck8o-118" value="" style="endArrow=classic;html=1;rounded=0;entryX=-0.008;entryY=0.685;entryDx=0;entryDy=0;entryPerimeter=0;" edge="1" parent="h9owmoBPIT-_znsyck8o-1" target="h9owmoBPIT-_znsyck8o-91">
          <mxGeometry width="50" height="50" relative="1" as="geometry">
            <mxPoint x="910" y="870" as="sourcePoint" />
            <mxPoint x="960" y="820" as="targetPoint" />
          </mxGeometry>
        </mxCell>
        <mxCell id="h9owmoBPIT-_znsyck8o-119" value="" style="endArrow=classic;html=1;rounded=0;" edge="1" parent="h9owmoBPIT-_znsyck8o-1">
          <mxGeometry width="50" height="50" relative="1" as="geometry">
            <mxPoint x="910" y="900" as="sourcePoint" />
            <mxPoint x="1100" y="900" as="targetPoint" />
          </mxGeometry>
        </mxCell>
        <mxCell id="h9owmoBPIT-_znsyck8o-120" value="" style="endArrow=classic;html=1;rounded=0;" edge="1" parent="h9owmoBPIT-_znsyck8o-1">
          <mxGeometry width="50" height="50" relative="1" as="geometry">
            <mxPoint x="910" y="940" as="sourcePoint" />
            <mxPoint x="1100" y="940" as="targetPoint" />
          </mxGeometry>
        </mxCell>
        <mxCell id="h9owmoBPIT-_znsyck8o-121" value="" style="endArrow=none;html=1;rounded=0;" edge="1" parent="h9owmoBPIT-_znsyck8o-1">
          <mxGeometry width="50" height="50" relative="1" as="geometry">
            <mxPoint x="910" y="920" as="sourcePoint" />
            <mxPoint x="910" y="900" as="targetPoint" />
          </mxGeometry>
        </mxCell>
        <mxCell id="h9owmoBPIT-_znsyck8o-122" value="" style="endArrow=none;html=1;rounded=0;" edge="1" parent="h9owmoBPIT-_znsyck8o-1">
          <mxGeometry width="50" height="50" relative="1" as="geometry">
            <mxPoint x="560" y="920" as="sourcePoint" />
            <mxPoint x="910" y="920" as="targetPoint" />
          </mxGeometry>
        </mxCell>
        <mxCell id="h9owmoBPIT-_znsyck8o-123" value="" style="endArrow=none;html=1;rounded=0;" edge="1" parent="h9owmoBPIT-_znsyck8o-1">
          <mxGeometry width="50" height="50" relative="1" as="geometry">
            <mxPoint x="910" y="900" as="sourcePoint" />
            <mxPoint x="910" y="900" as="targetPoint" />
          </mxGeometry>
        </mxCell>
        <mxCell id="h9owmoBPIT-_znsyck8o-124" value="" style="endArrow=none;html=1;rounded=0;" edge="1" parent="h9owmoBPIT-_znsyck8o-1">
          <mxGeometry width="50" height="50" relative="1" as="geometry">
            <mxPoint x="560" y="960" as="sourcePoint" />
            <mxPoint x="910" y="960" as="targetPoint" />
          </mxGeometry>
        </mxCell>
        <mxCell id="h9owmoBPIT-_znsyck8o-125" value="" style="endArrow=none;html=1;rounded=0;" edge="1" parent="h9owmoBPIT-_znsyck8o-1">
          <mxGeometry width="50" height="50" relative="1" as="geometry">
            <mxPoint x="910" y="960" as="sourcePoint" />
            <mxPoint x="910" y="940" as="targetPoint" />
          </mxGeometry>
        </mxCell>
        <mxCell id="h9owmoBPIT-_znsyck8o-126" value="" style="endArrow=none;html=1;rounded=0;" edge="1" parent="h9owmoBPIT-_znsyck8o-1">
          <mxGeometry width="50" height="50" relative="1" as="geometry">
            <mxPoint x="600" y="240" as="sourcePoint" />
            <mxPoint x="1040" y="240" as="targetPoint" />
          </mxGeometry>
        </mxCell>
        <mxCell id="h9owmoBPIT-_znsyck8o-127" value="" style="endArrow=none;html=1;rounded=0;" edge="1" parent="h9owmoBPIT-_znsyck8o-1">
          <mxGeometry relative="1" as="geometry">
            <mxPoint x="1040" y="530" as="sourcePoint" />
            <mxPoint x="1040" y="240" as="targetPoint" />
          </mxGeometry>
        </mxCell>
        <mxCell id="h9owmoBPIT-_znsyck8o-128" value="" style="endArrow=classic;html=1;rounded=0;entryX=-0.031;entryY=0.421;entryDx=0;entryDy=0;entryPerimeter=0;" edge="1" parent="h9owmoBPIT-_znsyck8o-1" target="h9owmoBPIT-_znsyck8o-95">
          <mxGeometry width="50" height="50" relative="1" as="geometry">
            <mxPoint x="1040" y="530" as="sourcePoint" />
            <mxPoint x="1070" y="530" as="targetPoint" />
          </mxGeometry>
        </mxCell>
        <mxCell id="h9owmoBPIT-_znsyck8o-129" value="" style="endArrow=none;html=1;rounded=0;" edge="1" parent="h9owmoBPIT-_znsyck8o-1">
          <mxGeometry width="50" height="50" relative="1" as="geometry">
            <mxPoint x="1040" y="440" as="sourcePoint" />
            <mxPoint x="1600" y="440" as="targetPoint" />
          </mxGeometry>
        </mxCell>
        <mxCell id="h9owmoBPIT-_znsyck8o-130" value="" style="endArrow=none;html=1;rounded=0;" edge="1" parent="h9owmoBPIT-_znsyck8o-1">
          <mxGeometry width="50" height="50" relative="1" as="geometry">
            <mxPoint x="1600" y="760" as="sourcePoint" />
            <mxPoint x="1600" y="440" as="targetPoint" />
          </mxGeometry>
        </mxCell>
        <mxCell id="h9owmoBPIT-_znsyck8o-131" value="" style="endArrow=none;html=1;rounded=0;" edge="1" parent="h9owmoBPIT-_znsyck8o-1">
          <mxGeometry width="50" height="50" relative="1" as="geometry">
            <mxPoint x="1040" y="760" as="sourcePoint" />
            <mxPoint x="1600" y="760" as="targetPoint" />
          </mxGeometry>
        </mxCell>
        <mxCell id="h9owmoBPIT-_znsyck8o-132" value="" style="endArrow=none;html=1;rounded=0;" edge="1" parent="h9owmoBPIT-_znsyck8o-1">
          <mxGeometry width="50" height="50" relative="1" as="geometry">
            <mxPoint x="1040" y="820" as="sourcePoint" />
            <mxPoint x="1040" y="760" as="targetPoint" />
          </mxGeometry>
        </mxCell>
        <mxCell id="h9owmoBPIT-_znsyck8o-133" value="" style="endArrow=classic;html=1;rounded=0;entryX=0.019;entryY=0.339;entryDx=0;entryDy=0;entryPerimeter=0;" edge="1" parent="h9owmoBPIT-_znsyck8o-1" target="h9owmoBPIT-_znsyck8o-86">
          <mxGeometry width="50" height="50" relative="1" as="geometry">
            <mxPoint x="1040" y="820" as="sourcePoint" />
            <mxPoint x="1090" y="770" as="targetPoint" />
          </mxGeometry>
        </mxCell>
        <mxCell id="h9owmoBPIT-_znsyck8o-134" value="" style="endArrow=none;html=1;rounded=0;" edge="1" parent="h9owmoBPIT-_znsyck8o-1">
          <mxGeometry width="50" height="50" relative="1" as="geometry">
            <mxPoint x="1600" y="1080" as="sourcePoint" />
            <mxPoint x="1600" y="760" as="targetPoint" />
          </mxGeometry>
        </mxCell>
        <mxCell id="h9owmoBPIT-_znsyck8o-135" value="" style="endArrow=none;html=1;rounded=0;" edge="1" parent="h9owmoBPIT-_znsyck8o-1">
          <mxGeometry width="50" height="50" relative="1" as="geometry">
            <mxPoint x="1040" y="1080" as="sourcePoint" />
            <mxPoint x="1600" y="1080" as="targetPoint" />
          </mxGeometry>
        </mxCell>
        <mxCell id="h9owmoBPIT-_znsyck8o-136" value="" style="endArrow=none;html=1;rounded=0;" edge="1" parent="h9owmoBPIT-_znsyck8o-1">
          <mxGeometry width="50" height="50" relative="1" as="geometry">
            <mxPoint x="1040" y="1150" as="sourcePoint" />
            <mxPoint x="1040" y="1080" as="targetPoint" />
          </mxGeometry>
        </mxCell>
        <mxCell id="h9owmoBPIT-_znsyck8o-137" value="" style="endArrow=classic;html=1;rounded=0;entryX=-0.069;entryY=0.397;entryDx=0;entryDy=0;entryPerimeter=0;" edge="1" parent="h9owmoBPIT-_znsyck8o-1" target="h9owmoBPIT-_znsyck8o-104">
          <mxGeometry width="50" height="50" relative="1" as="geometry">
            <mxPoint x="1040" y="1150" as="sourcePoint" />
            <mxPoint x="1090" y="1100" as="targetPoint" />
          </mxGeometry>
        </mxCell>
        <mxCell id="h9owmoBPIT-_znsyck8o-138" value="" style="endArrow=none;html=1;rounded=0;entryX=0.005;entryY=-0.004;entryDx=0;entryDy=0;entryPerimeter=0;" edge="1" parent="h9owmoBPIT-_znsyck8o-1" target="h9owmoBPIT-_znsyck8o-141">
          <mxGeometry width="50" height="50" relative="1" as="geometry">
            <mxPoint x="1470" y="600" as="sourcePoint" />
            <mxPoint x="1580" y="600" as="targetPoint" />
          </mxGeometry>
        </mxCell>
        <mxCell id="h9owmoBPIT-_znsyck8o-139" value="" style="endArrow=none;html=1;rounded=0;entryX=0.022;entryY=-0.008;entryDx=0;entryDy=0;entryPerimeter=0;" edge="1" parent="h9owmoBPIT-_znsyck8o-1" target="h9owmoBPIT-_znsyck8o-142">
          <mxGeometry width="50" height="50" relative="1" as="geometry">
            <mxPoint x="1470" y="900" as="sourcePoint" />
            <mxPoint x="1560" y="900" as="targetPoint" />
          </mxGeometry>
        </mxCell>
        <mxCell id="h9owmoBPIT-_znsyck8o-140" value="" style="endArrow=none;html=1;rounded=0;" edge="1" parent="h9owmoBPIT-_znsyck8o-1">
          <mxGeometry width="50" height="50" relative="1" as="geometry">
            <mxPoint x="1470" y="1220" as="sourcePoint" />
            <mxPoint x="1640" y="1220" as="targetPoint" />
          </mxGeometry>
        </mxCell>
        <mxCell id="h9owmoBPIT-_znsyck8o-141" value="" style="shape=requiredInterface;html=1;verticalLabelPosition=bottom;sketch=0;rotation=-90;" vertex="1" parent="h9owmoBPIT-_znsyck8o-1">
          <mxGeometry x="1590" y="581.25" width="10" height="27.5" as="geometry" />
        </mxCell>
        <mxCell id="h9owmoBPIT-_znsyck8o-142" value="" style="shape=requiredInterface;html=1;verticalLabelPosition=bottom;sketch=0;rotation=-90;" vertex="1" parent="h9owmoBPIT-_znsyck8o-1">
          <mxGeometry x="1590" y="881.25" width="10" height="27.5" as="geometry" />
        </mxCell>
        <mxCell id="h9owmoBPIT-_znsyck8o-143" value="" style="group" vertex="1" connectable="0" parent="h9owmoBPIT-_znsyck8o-1">
          <mxGeometry x="1730" y="820" width="240" height="161.25" as="geometry" />
        </mxCell>
        <mxCell id="h9owmoBPIT-_znsyck8o-144" value="" style="rounded=1;arcSize=10;whiteSpace=wrap;html=1;align=center;" vertex="1" parent="h9owmoBPIT-_znsyck8o-143">
          <mxGeometry y="-20" width="240" height="181.25" as="geometry" />
        </mxCell>
        <mxCell id="h9owmoBPIT-_znsyck8o-145" value="serial_tx.vhd" style="text;html=1;align=center;verticalAlign=middle;whiteSpace=wrap;rounded=0;" vertex="1" parent="h9owmoBPIT-_znsyck8o-143">
          <mxGeometry y="-20" width="80" height="30" as="geometry" />
        </mxCell>
        <mxCell id="h9owmoBPIT-_znsyck8o-146" value="Ceaser" style="text;html=1;align=center;verticalAlign=middle;whiteSpace=wrap;rounded=0;" vertex="1" parent="h9owmoBPIT-_znsyck8o-143">
          <mxGeometry y="68.44" width="50" height="24.37" as="geometry" />
        </mxCell>
        <mxCell id="h9owmoBPIT-_znsyck8o-147" value="Vernam" style="text;html=1;align=center;verticalAlign=middle;whiteSpace=wrap;rounded=0;" vertex="1" parent="h9owmoBPIT-_znsyck8o-143">
          <mxGeometry y="19.999999999999993" width="50" height="30" as="geometry" />
        </mxCell>
        <mxCell id="h9owmoBPIT-_znsyck8o-148" value="?" style="text;html=1;align=center;verticalAlign=middle;whiteSpace=wrap;rounded=0;" vertex="1" parent="h9owmoBPIT-_znsyck8o-143">
          <mxGeometry y="100" width="60" height="30" as="geometry" />
        </mxCell>
        <mxCell id="h9owmoBPIT-_znsyck8o-149" value="data" style="text;html=1;align=center;verticalAlign=middle;whiteSpace=wrap;rounded=0;" vertex="1" parent="h9owmoBPIT-_znsyck8o-143">
          <mxGeometry x="210" y="55.620000000000005" width="30" height="30" as="geometry" />
        </mxCell>
        <mxCell id="h9owmoBPIT-_znsyck8o-150" value="" style="endArrow=classic;html=1;rounded=0;entryX=0;entryY=0.5;entryDx=0;entryDy=0;exitX=0.022;exitY=0.996;exitDx=0;exitDy=0;exitPerimeter=0;" edge="1" parent="h9owmoBPIT-_znsyck8o-1" source="h9owmoBPIT-_znsyck8o-142" target="h9owmoBPIT-_znsyck8o-146">
          <mxGeometry width="50" height="50" relative="1" as="geometry">
            <mxPoint x="1610" y="900" as="sourcePoint" />
            <mxPoint x="1720" y="900" as="targetPoint" />
          </mxGeometry>
        </mxCell>
        <mxCell id="h9owmoBPIT-_znsyck8o-151" value="" style="endArrow=none;html=1;rounded=0;exitX=0.013;exitY=0.991;exitDx=0;exitDy=0;exitPerimeter=0;" edge="1" parent="h9owmoBPIT-_znsyck8o-1" source="h9owmoBPIT-_znsyck8o-141">
          <mxGeometry width="50" height="50" relative="1" as="geometry">
            <mxPoint x="1610" y="600" as="sourcePoint" />
            <mxPoint x="1660" y="600" as="targetPoint" />
          </mxGeometry>
        </mxCell>
        <mxCell id="h9owmoBPIT-_znsyck8o-152" value="" style="endArrow=none;html=1;rounded=0;" edge="1" parent="h9owmoBPIT-_znsyck8o-1">
          <mxGeometry width="50" height="50" relative="1" as="geometry">
            <mxPoint x="1660" y="860" as="sourcePoint" />
            <mxPoint x="1660" y="600" as="targetPoint" />
          </mxGeometry>
        </mxCell>
        <mxCell id="h9owmoBPIT-_znsyck8o-153" value="" style="endArrow=classic;html=1;rounded=0;entryX=-0.009;entryY=0.67;entryDx=0;entryDy=0;entryPerimeter=0;" edge="1" parent="h9owmoBPIT-_znsyck8o-1" target="h9owmoBPIT-_znsyck8o-147">
          <mxGeometry width="50" height="50" relative="1" as="geometry">
            <mxPoint x="1660" y="860" as="sourcePoint" />
            <mxPoint x="1720" y="860" as="targetPoint" />
          </mxGeometry>
        </mxCell>
        <mxCell id="h9owmoBPIT-_znsyck8o-154" value="" style="endArrow=classic;html=1;rounded=0;" edge="1" parent="h9owmoBPIT-_znsyck8o-1">
          <mxGeometry width="50" height="50" relative="1" as="geometry">
            <mxPoint x="1970" y="894.83" as="sourcePoint" />
            <mxPoint x="2080" y="895" as="targetPoint" />
          </mxGeometry>
        </mxCell>
        <mxCell id="h9owmoBPIT-_znsyck8o-155" value="" style="endArrow=classic;html=1;rounded=0;" edge="1" parent="h9owmoBPIT-_znsyck8o-1">
          <mxGeometry width="50" height="50" relative="1" as="geometry">
            <mxPoint x="1640" y="940" as="sourcePoint" />
            <mxPoint x="1730" y="940" as="targetPoint" />
          </mxGeometry>
        </mxCell>
        <mxCell id="h9owmoBPIT-_znsyck8o-156" value="" style="endArrow=none;html=1;rounded=0;" edge="1" parent="h9owmoBPIT-_znsyck8o-1">
          <mxGeometry width="50" height="50" relative="1" as="geometry">
            <mxPoint x="1640" y="1220" as="sourcePoint" />
            <mxPoint x="1640" y="940" as="targetPoint" />
          </mxGeometry>
        </mxCell>
        <mxCell id="h9owmoBPIT-_znsyck8o-157" value="seg(6:0)" style="text;html=1;align=center;verticalAlign=middle;whiteSpace=wrap;rounded=0;" vertex="1" parent="h9owmoBPIT-_znsyck8o-1">
          <mxGeometry x="380" y="382.5" width="60" height="30" as="geometry" />
        </mxCell>
        <mxCell id="h9owmoBPIT-_znsyck8o-158" value="" style="shape=requiredInterface;html=1;verticalLabelPosition=bottom;sketch=0;rotation=-90;" vertex="1" parent="h9owmoBPIT-_znsyck8o-1">
          <mxGeometry x="596.25" y="380" width="10" height="27.5" as="geometry" />
        </mxCell>
        <mxCell id="h9owmoBPIT-_znsyck8o-159" value="" style="endArrow=none;html=1;rounded=0;entryX=0.015;entryY=0.014;entryDx=0;entryDy=0;entryPerimeter=0;" edge="1" parent="h9owmoBPIT-_znsyck8o-1" target="h9owmoBPIT-_znsyck8o-158">
          <mxGeometry width="50" height="50" relative="1" as="geometry">
            <mxPoint x="440" y="399" as="sourcePoint" />
            <mxPoint x="570" y="360" as="targetPoint" />
          </mxGeometry>
        </mxCell>
        <mxCell id="h9owmoBPIT-_znsyck8o-160" value="" style="endArrow=none;html=1;rounded=0;exitX=1;exitY=0.5;exitDx=0;exitDy=0;" edge="1" parent="h9owmoBPIT-_znsyck8o-1" source="h9owmoBPIT-_znsyck8o-55">
          <mxGeometry width="50" height="50" relative="1" as="geometry">
            <mxPoint x="510" y="490" as="sourcePoint" />
            <mxPoint x="560" y="480" as="targetPoint" />
          </mxGeometry>
        </mxCell>
        <mxCell id="h9owmoBPIT-_znsyck8o-161" value="" style="endArrow=none;html=1;rounded=0;exitX=0.006;exitY=0.993;exitDx=0;exitDy=0;exitPerimeter=0;entryX=0.007;entryY=0.006;entryDx=0;entryDy=0;entryPerimeter=0;" edge="1" parent="h9owmoBPIT-_znsyck8o-1" source="h9owmoBPIT-_znsyck8o-158" target="h9owmoBPIT-_znsyck8o-162">
          <mxGeometry width="50" height="50" relative="1" as="geometry">
            <mxPoint x="620" y="400" as="sourcePoint" />
            <mxPoint x="1010" y="400" as="targetPoint" />
          </mxGeometry>
        </mxCell>
        <mxCell id="h9owmoBPIT-_znsyck8o-162" value="" style="shape=requiredInterface;html=1;verticalLabelPosition=bottom;sketch=0;rotation=-90;" vertex="1" parent="h9owmoBPIT-_znsyck8o-1">
          <mxGeometry x="1040" y="381.25" width="10" height="27.5" as="geometry" />
        </mxCell>
        <mxCell id="h9owmoBPIT-_znsyck8o-163" value="" style="endArrow=classic;html=1;rounded=0;exitX=0.039;exitY=1.005;exitDx=0;exitDy=0;exitPerimeter=0;" edge="1" parent="h9owmoBPIT-_znsyck8o-1" source="h9owmoBPIT-_znsyck8o-162">
          <mxGeometry width="50" height="50" relative="1" as="geometry">
            <mxPoint x="1060" y="400.31" as="sourcePoint" />
            <mxPoint x="2080" y="400" as="targetPoint" />
          </mxGeometry>
        </mxCell>
        <mxCell id="h9owmoBPIT-_znsyck8o-164" value="" style="endArrow=classic;html=1;rounded=0;" edge="1" parent="h9owmoBPIT-_znsyck8o-1">
          <mxGeometry width="50" height="50" relative="1" as="geometry">
            <mxPoint x="1960" y="380.63" as="sourcePoint" />
            <mxPoint x="2080" y="380" as="targetPoint" />
          </mxGeometry>
        </mxCell>
        <mxCell id="h9owmoBPIT-_znsyck8o-165" value="" style="endArrow=classic;html=1;rounded=0;" edge="1" parent="h9owmoBPIT-_znsyck8o-1">
          <mxGeometry width="50" height="50" relative="1" as="geometry">
            <mxPoint x="1960" y="360.01" as="sourcePoint" />
            <mxPoint x="2080" y="360" as="targetPoint" />
          </mxGeometry>
        </mxCell>
        <mxCell id="h9owmoBPIT-_znsyck8o-166" value="" style="endArrow=classic;html=1;rounded=0;" edge="1" parent="h9owmoBPIT-_znsyck8o-1">
          <mxGeometry width="50" height="50" relative="1" as="geometry">
            <mxPoint x="1960" y="340" as="sourcePoint" />
            <mxPoint x="2080" y="340" as="targetPoint" />
          </mxGeometry>
        </mxCell>
        <mxCell id="h9owmoBPIT-_znsyck8o-167" value="" style="endArrow=classic;html=1;rounded=0;" edge="1" parent="h9owmoBPIT-_znsyck8o-1">
          <mxGeometry width="50" height="50" relative="1" as="geometry">
            <mxPoint x="1960" y="420" as="sourcePoint" />
            <mxPoint x="2080" y="420" as="targetPoint" />
          </mxGeometry>
        </mxCell>
        <mxCell id="h9owmoBPIT-_znsyck8o-168" value="" style="endArrow=classic;html=1;rounded=0;" edge="1" parent="h9owmoBPIT-_znsyck8o-1">
          <mxGeometry width="50" height="50" relative="1" as="geometry">
            <mxPoint x="1960" y="440" as="sourcePoint" />
            <mxPoint x="2080" y="440" as="targetPoint" />
          </mxGeometry>
        </mxCell>
        <mxCell id="h9owmoBPIT-_znsyck8o-169" value="" style="endArrow=classic;html=1;rounded=0;" edge="1" parent="h9owmoBPIT-_znsyck8o-1">
          <mxGeometry width="50" height="50" relative="1" as="geometry">
            <mxPoint x="1960" y="460" as="sourcePoint" />
            <mxPoint x="2080" y="460" as="targetPoint" />
          </mxGeometry>
        </mxCell>
        <mxCell id="h9owmoBPIT-_znsyck8o-170" value="" style="endArrow=none;html=1;rounded=0;" edge="1" parent="h9owmoBPIT-_znsyck8o-1">
          <mxGeometry width="50" height="50" relative="1" as="geometry">
            <mxPoint x="1960" y="460" as="sourcePoint" />
            <mxPoint x="1960" y="340" as="targetPoint" />
          </mxGeometry>
        </mxCell>
        <mxCell id="h9owmoBPIT-_znsyck8o-171" value="AN(7:0)" style="text;html=1;align=center;verticalAlign=middle;whiteSpace=wrap;rounded=0;" vertex="1" parent="h9owmoBPIT-_znsyck8o-1">
          <mxGeometry x="380" y="290" width="60" height="30" as="geometry" />
        </mxCell>
        <mxCell id="h9owmoBPIT-_znsyck8o-172" value="" style="shape=requiredInterface;html=1;verticalLabelPosition=bottom;sketch=0;rotation=-90;" vertex="1" parent="h9owmoBPIT-_znsyck8o-1">
          <mxGeometry x="596.25" y="290" width="10" height="27.5" as="geometry" />
        </mxCell>
        <mxCell id="h9owmoBPIT-_znsyck8o-173" value="" style="endArrow=none;html=1;rounded=0;entryX=0.038;entryY=0.005;entryDx=0;entryDy=0;entryPerimeter=0;exitX=1.01;exitY=0.627;exitDx=0;exitDy=0;exitPerimeter=0;" edge="1" parent="h9owmoBPIT-_znsyck8o-1" source="h9owmoBPIT-_znsyck8o-171" target="h9owmoBPIT-_znsyck8o-172">
          <mxGeometry width="50" height="50" relative="1" as="geometry">
            <mxPoint x="460" y="308.75" as="sourcePoint" />
            <mxPoint x="580" y="308.75" as="targetPoint" />
          </mxGeometry>
        </mxCell>
        <mxCell id="h9owmoBPIT-_znsyck8o-174" value="" style="endArrow=none;html=1;rounded=0;exitX=-0.001;exitY=0.993;exitDx=0;exitDy=0;exitPerimeter=0;entryX=0.029;entryY=0.016;entryDx=0;entryDy=0;entryPerimeter=0;" edge="1" parent="h9owmoBPIT-_znsyck8o-1" source="h9owmoBPIT-_znsyck8o-172" target="h9owmoBPIT-_znsyck8o-175">
          <mxGeometry width="50" height="50" relative="1" as="geometry">
            <mxPoint x="620" y="310" as="sourcePoint" />
            <mxPoint x="1030" y="310" as="targetPoint" />
            <Array as="points" />
          </mxGeometry>
        </mxCell>
        <mxCell id="h9owmoBPIT-_znsyck8o-175" value="" style="shape=requiredInterface;html=1;verticalLabelPosition=bottom;sketch=0;rotation=-90;" vertex="1" parent="h9owmoBPIT-_znsyck8o-1">
          <mxGeometry x="1040" y="291.25" width="10" height="27.5" as="geometry" />
        </mxCell>
        <mxCell id="h9owmoBPIT-_znsyck8o-176" value="" style="endArrow=classic;html=1;rounded=0;exitX=0.016;exitY=0.987;exitDx=0;exitDy=0;exitPerimeter=0;" edge="1" parent="h9owmoBPIT-_znsyck8o-1" source="h9owmoBPIT-_znsyck8o-175">
          <mxGeometry width="50" height="50" relative="1" as="geometry">
            <mxPoint x="1080" y="310" as="sourcePoint" />
            <mxPoint x="2080" y="310" as="targetPoint" />
          </mxGeometry>
        </mxCell>
      </root>
    </mxGraphModel>
  </diagram>
</mxfile>
